<?xml version="1.0" encoding="UTF-8" standalone="no"?>
<svg
   xmlns:dc="http://purl.org/dc/elements/1.1/"
   xmlns:cc="http://creativecommons.org/ns#"
   xmlns:rdf="http://www.w3.org/1999/02/22-rdf-syntax-ns#"
   xmlns:svg="http://www.w3.org/2000/svg"
   xmlns="http://www.w3.org/2000/svg"
   xmlns:sodipodi="http://sodipodi.sourceforge.net/DTD/sodipodi-0.dtd"
   xmlns:inkscape="http://www.inkscape.org/namespaces/inkscape"
   viewBox="0 0 533.33331 533.33331"
   height="533.33331"
   width="533.33331"
   xml:space="preserve"
   id="svg2"
   version="1.1"
   sodipodi:docname="kinotimes_logo.svg"
   inkscape:version="0.92.2 5c3e80d, 2017-08-06"><sodipodi:namedview
     pagecolor="#ffffff"
     bordercolor="#666666"
     borderopacity="1"
     objecttolerance="10"
     gridtolerance="10"
     guidetolerance="10"
     inkscape:pageopacity="0"
     inkscape:pageshadow="2"
     inkscape:window-width="1280"
     inkscape:window-height="701"
     id="namedview288"
     showgrid="false"
     inkscape:zoom="0.97265901"
     inkscape:cx="266.66653"
     inkscape:cy="266.66658"
     inkscape:window-x="0"
     inkscape:window-y="1"
     inkscape:window-maximized="1"
     inkscape:current-layer="g12" /><metadata
     id="metadata8"><rdf:RDF><cc:Work
         rdf:about=""><dc:format>image/svg+xml</dc:format><dc:type
           rdf:resource="http://purl.org/dc/dcmitype/StillImage" /><dc:title></dc:title></cc:Work></rdf:RDF></metadata><defs
     id="defs6"><inkscape:perspective
       sodipodi:type="inkscape:persp3d"
       inkscape:vp_x="0 : 266.66665 : 1"
       inkscape:vp_y="0 : 1000 : 0"
       inkscape:vp_z="533.33331 : 266.66665 : 1"
       inkscape:persp3d-origin="266.66665 : 177.77777 : 1"
       id="perspective4080" /><clipPath
       clipPathUnits="userSpaceOnUse"
       id="clipPath5024"><rect
         style="fill:#ffffff;fill-opacity:1;stroke-width:3.08000588"
         id="rect5026"
         width="767.22192"
         height="347.45926"
         x="-123.21733"
         y="256.02261" /></clipPath></defs><g
     transform="matrix(1.3333333,0,0,-1.3333333,0,533.33333)"
     id="g10"><g
       transform="scale(0.1)"
       id="g12"><path
         d="m 1999.14,2063.33 c 0,0 -119.2426,-12.9066 -298.2275,-30.7502 -178.9998,-17.8856 -417.7847,-40.29 -656.7464,-60.3378 -233.22404,-19.7465 -466.80715,-37.2097 -642.1407,-49.25 -168.57295,-11.6193 -283.25013,-18.6176 -291.85248,-19.1398 -0.2802,-0.016 -0.45024,-0.024 -0.50105,-0.024 l -0.01,-2e-4 v 0 c 0.0495,0.012 0.2198,0.016 0.50692,0.055 8.53237,0.9167 122.41747,13.2272 290.20845,29.9993 174.51526,17.4804 407.4265,39.3847 640.67566,59.0131 239.2687,20.3289 478.764,38.3073 658.4867,50.7102 179.7063,12.4515 299.6003,19.7255 299.6003,19.7255"
         style="fill:#313131;fill-opacity:1;fill-rule:nonzero;stroke:none"
         id="path4121"
         inkscape:connector-curvature="0" /><path
         id="path16"
         style="fill:#313131;fill-opacity:1;fill-rule:nonzero;stroke:none"
         d="m 1999.51,2059.56 v 0.05 c 0,-0.01 0,-0.02 0,-0.02 0,-0.01 0,-0.02 0,-0.03 m 0,0.05 c 0,0.01 0,0.03 -0.01,0.05 0,0.01 0,0.01 0,0.02 0,-0.01 0,-0.01 0,-0.01 v 0 c 0.01,-0.01 0.01,-0.03 0.01,-0.04 v 0 -0.02 m 0.49,0 -0.13,0.01 c -0.16,0.03 -0.26,0.05 -0.32,0.06 h -0.01 l 0.25,-0.05 -0.03,0.02 c 0.06,-0.01 0.15,-0.03 0.24,-0.04 m -0.22,0.01 h -0.05 c -0.06,0.02 -0.12,0.03 -0.15,0.05 -0.02,0 -0.04,0.01 -0.06,0.01 0.04,-0.01 0.13,-0.03 0.26,-0.06 m -0.09,0 h -0.01 c -0.03,0.01 -0.06,0.02 -0.11,0.04 -0.01,0.01 -0.02,0.01 -0.03,0.01 0,0 -0.01,0 -0.01,0.01 0,0 0,0 -0.01,0 0.03,-0.01 0.09,-0.03 0.17,-0.06 m -0.04,0 h -0.01 l -0.07,0.04 c 0.02,-0.01 0.05,-0.02 0.08,-0.04 m -0.01,0 h -0.01 c -0.02,0.01 -0.03,0.02 -0.05,0.03 0.02,-0.01 0.04,-0.02 0.06,-0.03 m -0.01,0 v 0 c -0.05,0.03 -0.09,0.05 -0.11,0.06 v 0 c 0.02,-0.01 0.03,-0.02 0.05,-0.02 l 0.06,-0.04 m -0.01,0 -0.01,0.01 c -0.02,0.01 -0.05,0.02 -0.08,0.04 0,0 0,0 -0.01,0 0.02,-0.01 0.05,-0.02 0.1,-0.05 m -0.02,0.01 h -0.01 c 0,0 -0.01,0 -0.01,0.01 0,-0.01 0.01,-0.01 0.02,-0.01 m -0.01,0 v 0 c -0.02,0.01 -0.03,0.01 -0.04,0.02 l -0.02,0.02 0.01,-0.01 0.05,-0.03 m -0.01,0 h -0.01 c -0.03,0.03 -0.06,0.05 -0.06,0.05 v 0 c 0.01,0 0.03,-0.02 0.07,-0.05 m -0.01,0 h -0.01 c -0.03,0.03 -0.05,0.05 -0.05,0.05 v 0 c 0,0 0.02,-0.02 0.06,-0.05 m -0.01,0 h -0.01 c -0.02,0.02 -0.04,0.04 -0.04,0.05 v 0 c 0,-0.01 0.02,-0.02 0.05,-0.05 m -0.01,0 h -0.01 c -0.01,0.02 -0.03,0.04 -0.03,0.05 v 0 c 0,-0.01 0.02,-0.03 0.04,-0.05 m -0.01,0 v 0 c -0.01,0.01 -0.02,0.03 -0.03,0.04 v 0 c 0.01,-0.01 0.02,-0.02 0.03,-0.04 m -0.01,0 v 0 c 0,0 0,0.01 -0.01,0.02 0.01,-0.01 0.01,-0.01 0.01,-0.02 m 0,0 v 0 c -0.01,0.01 -0.01,0.02 -0.02,0.03 v 0.01 l 0.02,-0.04 m 0,0 h -0.01 v 0.01 c 0,0.01 -0.01,0.02 -0.01,0.03 0,-0.01 0.01,-0.03 0.02,-0.04 m -0.02,0 v 0 c 0,0 0,0 0,0.01 0,0 0,0 0,0.01 0,-0.01 0,-0.01 0,-0.02 v 0 m 0,0 v 0 c 0,0.01 0,0.01 0,0.02 0,-0.01 0,-0.01 0,-0.02 m 0.51,0 c -0.26,0.03 -0.43,0.05 -0.49,0.05 l -0.01,0.01 c 0.05,-0.01 0.22,-0.02 0.5,-0.04 0,-0.01 0,-0.01 0,-0.02 m -0.45,0.02 c -0.01,0 -0.02,0.01 -0.03,0.01 0,0.01 -0.01,0.01 -0.01,0.01 v 0 c 0.01,-0.01 0.03,-0.02 0.04,-0.02 m -0.04,0.02 c 0,0 -0.01,0 -0.01,0.01 v 0 0 l 0.01,-0.01 m -0.03,0 c 0,0.01 0,0.01 0,0.01 v 0 0 c 0,0 0,0 0,-0.01 m 0.52,0.01 c -0.29,0 -0.46,0.01 -0.51,0.01 0.01,0 0.01,0 0.01,0 0.05,0 0.22,0 0.5,0.01 0,-0.01 0,-0.02 0,-0.02 m -0.48,0 v 0 c -0.01,0 -0.02,0 -0.03,0 v 0.01 c 0.01,-0.01 0.02,-0.01 0.03,-0.01 m 0,0.01 c 0.13,0.01 0.29,0.03 0.48,0.05 0,0 0,-0.01 0,-0.02 -0.25,-0.01 -0.41,-0.03 -0.48,-0.03 m -0.03,0 c 0,0 0,0 0,0.01 0.01,0 0.01,0 0.01,0 0.12,0.06 0.29,0.15 0.49,0.25 0,-0.01 0,-0.02 0,-0.03 -0.21,-0.09 -0.38,-0.17 -0.5,-0.23 v 0 m 0,0 c 0.13,0.05 0.29,0.12 0.5,0.2 0,-0.01 0,-0.01 0,-0.02 -0.19,-0.07 -0.35,-0.13 -0.47,-0.17 -0.01,0 -0.02,-0.01 -0.03,-0.01 v 0 m 0,0 v 0 0 0 m 0,0 v 0 0 0 0 m 0,0 v 0 0 0 0 0 m 0.01,0 c 0.01,0.01 0.01,0.01 0.02,0.01 0.11,0.03 0.27,0.08 0.47,0.14 0,-0.01 0,-0.01 0,-0.02 -0.26,-0.07 -0.42,-0.11 -0.48,-0.13 h -0.01 m -0.01,0 v 0 0 0.01 0 c 0,-0.01 0,-0.01 0,-0.01 m 0,0 v 0 c 0.03,0.04 0.19,0.22 0.48,0.55 0,-0.01 0,-0.03 0,-0.04 -0.29,-0.3 -0.45,-0.47 -0.48,-0.51 v 0 m 0,0 c 0.03,0.04 0.2,0.19 0.48,0.46 0.01,-0.01 0.01,-0.02 0.01,-0.03 -0.28,-0.25 -0.45,-0.39 -0.49,-0.42 v -0.01 0 m 0,0 v 0.01 c 0.07,0.3 0.21,0.87 0.42,1.7 0,-0.08 0.01,-0.16 0.01,-0.24 -0.21,-0.69 -0.35,-1.18 -0.43,-1.46 0,0 0,0 0,-0.01 m 0,0 v 0 0 0 m 0,0.01 v 0 c 0.09,0.25 0.23,0.67 0.44,1.26 0,-0.05 0.01,-0.1 0.01,-0.15 -0.21,-0.51 -0.36,-0.88 -0.45,-1.11 v 0 m 0,0 v 0 c 0.04,0.05 0.2,0.27 0.47,0.66 0,-0.02 0.01,-0.04 0.01,-0.06 -0.29,-0.36 -0.45,-0.56 -0.48,-0.6 m 0.01,0 v 0 c 0.12,0.08 0.28,0.18 0.48,0.31 0,-0.01 0,-0.02 0,-0.03 -0.2,-0.12 -0.36,-0.21 -0.48,-0.28 v 0 m 0.03,0 c 0.11,0.02 0.26,0.05 0.46,0.09 0,0 0,-0.01 0.01,-0.02 -0.2,-0.03 -0.35,-0.05 -0.47,-0.07 m -0.04,0 c 0,0.01 0,0.01 0.01,0.01 0.04,0.08 0.19,0.34 0.46,0.79 0,-0.03 0,-0.05 0,-0.07 -0.27,-0.42 -0.43,-0.67 -0.47,-0.73 m -0.01,0.01 v 0 c 0.01,0.01 0.01,0.01 0.01,0.02 v -0.01 c 0,0 0,-0.01 -0.01,-0.01 m 0.03,0 c 0.1,0.08 0.26,0.2 0.47,0.37 0,-0.01 0,-0.03 0,-0.04 -0.2,-0.14 -0.36,-0.25 -0.47,-0.33 m -0.02,0.01 c 0,0.03 0,0.05 0,0.05 l -0.01,-0.05 c 0,0.03 0,0.05 0,0.05 v 0 c 0,0.57 -0.01,3.97 -0.02,9.98 0.15,-2.75 0.27,-4.95 0.35,-6.59 -0.17,-1.85 -0.28,-3.01 -0.32,-3.44 m 0,0 c 0,0.01 0,0.01 0,0.01 l 0.03,0.16 c 0,0 -0.01,-0.05 -0.03,-0.14 0,0.02 0.01,0.04 0.01,0.06 0.06,0.42 0.18,1.24 0.36,2.46 0.01,-0.17 0.02,-0.34 0.03,-0.49 -0.2,-1.02 -0.33,-1.71 -0.4,-2.06 m 0.02,0.02 c 0.09,0.21 0.24,0.52 0.44,0.94 0,-0.03 0,-0.06 0,-0.09 -0.24,-0.46 -0.38,-0.74 -0.44,-0.85 m -0.39,3.59 c -2.05,21.03 -12.41,127.7 -25.98,279.72 -15.24,170.16 -34.07,397.19 -50.47,624.42 -16.55,227.3 -30.66,454.78 -40.14,625.46 -9.51,170.67 -14.81,284.53 -14.81,284.53 0,0 11.17,-113.43 26.37,-283.67 15.24,-170.25 34.08,-397.35 50.48,-624.59 16.57,-227.21 30.57,-454.49 40.18,-625.13 7.51,-140.01 12.96,-241.74 14.68,-273.77 -0.13,-2.9 -0.23,-5.23 -0.31,-6.97" /><path
         id="path18"
         style="fill:#313131;fill-opacity:1;fill-rule:nonzero;stroke:none"
         d="m 1999.55,2059.46 -0.01,0.02 c -0.01,0.04 -0.02,0.08 -0.02,0.11 0,0.02 -0.01,0.03 -0.01,0.05 0,-0.01 0,-0.01 0,-0.01 0.03,-0.11 0.04,-0.17 0.04,-0.17 m -0.02,0.03 v 0 c 0,0 -0.01,0.05 -0.02,0.14 0,0.01 0,0.01 0,0.02 v 0 c 0,-0.02 0,-0.03 0.01,-0.06 0,-0.03 0.01,-0.06 0.01,-0.1 m -0.45,2.35 c -3.34,17 -24.23,123.63 -53.05,277.3 -31.55,167.92 -72.15,392.1 -110.35,616.72 -38.41,224.94 -74.4,450.26 -100.29,619.42 -25.94,169.15 -42.2,282.08 -42.2,282.08 0,0 22.06,-111.95 53.61,-280.11 31.58,-168.17 72.22,-392.59 110.46,-617.4 38.34,-224.67 74.29,-449.72 100.14,-618.66 23.46,-153.01 38.99,-259.95 41.7,-278.75 0,-0.21 -0.01,-0.41 -0.02,-0.6" /><path
         id="path20"
         style="fill:#313131;fill-opacity:1;fill-rule:nonzero;stroke:none"
         d="m 1999.58,2059.43 -0.05,0.16 0.01,-0.07 c -0.01,0.07 -0.02,0.12 -0.03,0.14 v 0.01 c 0.01,-0.03 0.02,-0.09 0.05,-0.17 0.01,-0.04 0.02,-0.07 0.02,-0.07 m -0.07,0.2 c 0,0.01 0,0.01 0,0.02 v 0 c 0,0 0,-0.01 0,-0.02 m 0.01,0.01 c -0.01,0.02 -0.01,0.03 -0.01,0.03 0,0 0,0 0,0.01 0,-0.01 0,-0.01 0,-0.01 0,-0.01 0.01,-0.02 0.01,-0.03 m -0.02,0.03 c 0,0 0,0 0,0.01 v 0 -0.01 m -0.45,1.54 c -4.39,14.7 -35.64,119.5 -79.61,271.47 -47.52,164.11 -109.47,383.35 -169.09,603.26 -59.97,220.69 -117.59,441.97 -159.72,608.2 -42.17,166.21 -69.26,277.27 -69.26,277.27 0,0 32.77,-109.54 80.41,-274.22 47.66,-164.63 109.87,-384.79 169.66,-605.36 59.75,-219.92 117.15,-440.43 159.12,-606.07 38.69,-152.57 64.65,-258.51 68.5,-274.28 0,-0.09 -0.01,-0.18 -0.01,-0.27" /><path
         id="path22"
         style="fill:#313131;fill-opacity:1;fill-rule:nonzero;stroke:none"
         d="m 1999.51,2059.66 c 0,0.01 0,0.01 0,0.02 v 0 -0.01 -0.01 m -0.48,1.18 c -5.27,12.96 -46.59,114.71 -105.36,262.88 -63.02,158.78 -145.68,371.06 -226.1,584.22 -81.11,214.56 -159.92,429.94 -217.97,591.81 -58.09,161.88 -95.82,270.13 -95.82,270.13 0,0 43.26,-106.27 106.67,-266.18 63.45,-159.9 146.64,-373.57 227.52,-588.01 80.54,-213.12 158.8,-427.07 216.45,-587.89 53.64,-149.52 89.8,-252.99 94.62,-266.79 0,-0.06 0,-0.11 -0.01,-0.17" /><path
         id="path24"
         style="fill:#313131;fill-opacity:1;fill-rule:nonzero;stroke:none"
         d="m 1999.61,2059.45 -0.08,0.18 -0.02,0.04 v 0.01 0 c 0,-0.01 0.01,-0.02 0.01,-0.03 0.01,-0.01 0.01,-0.02 0.01,-0.02 0.06,-0.12 0.08,-0.18 0.08,-0.18 m -0.1,0.22 v 0.01 0 0 c 0,0 0,0 0,-0.01 v 0 m 0,0.01 v 0 0 0 0 m 0,0 v 0 0 0 0 m -0.49,0.92 c -5.43,10.38 -56.61,108.33 -130.14,251.92 -77.85,151.98 -180.37,355.3 -280.76,559.75 -101.62,206.57 -201.06,414.23 -274.54,570.28 -73.52,156.04 -121.58,260.49 -121.58,260.49 0,0 53.39,-102.02 132.05,-255.69 78.7,-153.65 182.28,-359.12 283.62,-565.56 100.51,-204.4 198.83,-409.83 271.58,-564.37 68.09,-144.57 114.13,-244.44 119.78,-256.7 0,-0.04 -0.01,-0.08 -0.01,-0.12" /><path
         id="path26"
         style="fill:#313131;fill-opacity:1;fill-rule:nonzero;stroke:none"
         d="m 1999.02,2060.43 c -5.98,9.17 -66.38,102 -153.59,238.52 -91.96,143.87 -213.36,336.51 -332.76,530.48 -121.37,196.84 -240.45,394.62 -328.87,543.61 -88.42,148.94 -146.46,248.73 -146.46,248.73 0,0 63.11,-96.88 156.42,-242.97 93.32,-146.07 216.47,-341.55 337.48,-538.19 119.45,-193.81 236.84,-388.85 323.93,-535.69 82.49,-139 138.15,-234.61 143.85,-244.4 0,-0.03 0,-0.06 0,-0.09" /><path
         id="path28"
         style="fill:#313131;fill-opacity:1;fill-rule:nonzero;stroke:none"
         d="m 1999.01,2060.31 c -6.43,8.08 -75.48,94.94 -175.57,223.02 -105.19,134.53 -244.37,314.89 -381.52,496.55 -140.02,185.14 -278.03,371.68 -380.62,512.21 -102.624,140.5 -170.171,234.75 -170.171,234.75 0,0 72.312,-90.88 179.501,-228.09 107.22,-137.19 248.95,-320.95 388.65,-506.06 137.28,-181.61 272.63,-364.64 373.27,-502.56 95.65,-131.04 160.26,-221.11 166.46,-229.76 0,-0.02 0,-0.04 0,-0.06" /><path
         id="path30"
         style="fill:#313131;fill-opacity:1;fill-rule:nonzero;stroke:none"
         d="m 1999.01,2060.2 c -6.85,7.12 -83.93,87.24 -195.96,205.63 -117.45,124.08 -272.96,290.47 -426.71,458.46 -157.6,171.91 -313.35,345.39 -429.297,476.21 -115.984,130.79 -192.496,218.65 -192.496,218.65 0,0 80.926,-84.06 201.121,-211.16 120.222,-127.06 279.382,-297.44 436.642,-469.35 153.84,-167.9 305.91,-337.39 419.16,-465.24 107.93,-121.8 180.9,-205.53 187.54,-213.15 0,-0.01 0,-0.03 0,-0.05" /><path
         id="path32"
         style="fill:#313131;fill-opacity:1;fill-rule:nonzero;stroke:none"
         d="m 1999,2060.12 c -7.2,6.19 -91.6,78.87 -214.56,186.52 -128.64,112.58 -299.2,263.77 -468.15,416.69 -173.88,157.1 -346.048,315.93 -474.388,435.83 -128.363,119.89 -213.203,200.55 -213.203,200.55 0,0 88.864,-76.47 221.063,-192.29 132.226,-115.78 307.478,-271.22 480.978,-428.36 169.05,-152.83 336.48,-307.4 461.33,-424.13 119.24,-111.44 199.91,-188.09 206.93,-194.77 0,-0.01 0,-0.03 0,-0.04" /><path
         id="path34"
         style="fill:#313131;fill-opacity:1;fill-rule:nonzero;stroke:none"
         d="m 1999.71,2059.54 v 0 l -0.12,0.09 -0.05,0.03 c 0.01,-0.01 0.02,-0.01 0.04,-0.02 0,-0.01 0.01,-0.01 0.01,-0.01 0.06,-0.04 0.08,-0.06 0.08,-0.06 l 0.04,-0.03 m -0.16,0.11 c -0.02,0.02 -0.03,0.03 -0.04,0.03 v 0 c 0,0 0.01,0 0.02,-0.01 l 0.02,-0.02 m -0.01,0.01 c -0.01,0.01 -0.01,0.01 -0.01,0.01 l -0.01,0.01 c 0,-0.01 0.01,-0.01 0.01,-0.01 0,0 0.01,0 0.01,-0.01 m -0.02,0.02 h -0.01 v 0 h 0.01 v 0 m 0,0 v 0 0 0 0 0 m -0.52,0.37 c -8.62,6.12 -99.27,70.5 -231.18,165.82 -138.78,100.24 -322.96,235.05 -505.74,371.74 -188.65,140.82 -375.771,283.54 -515.404,391.43 -139.66,107.86 -232.098,180.57 -232.098,180.57 0,0 96.043,-68.18 239.117,-171.64 143.098,-103.43 332.955,-242.49 521.235,-383.4 182.77,-136.54 364.17,-275 499.61,-379.73 128.9,-99.63 216.34,-168.37 224.46,-174.76 0,-0.01 0,-0.02 0,-0.03" /><path
         id="path38"
         style="fill:#313131;fill-opacity:1;fill-rule:nonzero;stroke:none"
         d="m 1999.79,2059.56 c 0,0 -0.05,0.02 -0.15,0.06 -0.02,0.01 -0.04,0.02 -0.06,0.03 0.02,-0.01 0.03,-0.02 0.05,-0.03 0.02,0 0.03,-0.01 0.04,-0.02 0,0 0,0.01 -0.01,0.01 l -0.03,0.01 -0.06,0.04 c -0.02,0 -0.03,0.01 -0.05,0.02 v 0 h 0.01 c 0.01,-0.01 0.02,-0.01 0.04,-0.02 l 0.07,-0.04 0.15,-0.06 m -0.26,0.12 c 0,0 -0.01,0 -0.02,0 0.01,0 0.01,0 0.01,0 0.01,0 0.01,0 0.01,0 m -0.02,0 v 0 c 0,0.01 0,0.01 0,0.01 v 0 0 -0.01 m -0.52,0.24 c -9.87,4.56 -111.18,51.34 -258.82,120.95 -155.52,73.3 -362.25,172.3 -567.91,273.39 -213.166,104.52 -425.194,211.18 -583.686,292.15 -158.531,80.94 -263.64,135.78 -263.64,135.78 0,0 107.886,-49.79 268.988,-125.84 161.113,-76.01 375.234,-178.65 588.168,-283.42 205.72,-100.97 410.32,-204 563.26,-282.21 145.14,-74.19 243.94,-125.7 253.64,-130.76 0,-0.02 0,-0.03 0,-0.04" /><path
         id="path40"
         style="fill:#313131;fill-opacity:1;fill-rule:nonzero;stroke:none"
         d="m 1999.74,2059.59 c -0.07,0.03 -0.13,0.06 -0.17,0.07 0.05,-0.02 0.08,-0.03 0.11,-0.04 0.02,-0.01 0.04,-0.01 0.04,-0.01 l 0.02,-0.02 m -0.2,0.08 c -0.02,0.01 -0.03,0.01 -0.03,0.02 v 0 -0.01 c 0.01,0 0.02,0 0.02,0 0,-0.01 0.01,-0.01 0.01,-0.01 m -0.01,0.01 h -0.01 v 0 0 c -0.01,0 -0.01,0 -0.01,0.01 v 0 c 0,-0.01 0.01,-0.01 0.02,-0.01 m -0.02,0 v 0 0 0 0.01 c 0,-0.01 0,-0.01 0,-0.01 m 0,0 v 0 0 0 0 m 0,0 v 0 0 0 0 m -0.52,0.19 c -9.67,3.43 -115.35,40.91 -269.71,97.06 -162.05,58.92 -377.6,138.8 -592.27,220.83 -222.557,84.81 -444.158,171.83 -609.94,238.12 -165.793,66.26 -275.914,111.38 -275.914,111.38 0,0 112.391,-39.85 280.371,-101.03 168,-61.16 391.426,-144.06 613.883,-229.17 214.67,-81.9 428.42,-165.95 588.29,-229.95 151.97,-60.81 255.42,-103.17 265.29,-107.21 0,-0.01 0,-0.02 0,-0.03" /><path
         id="path42"
         style="fill:#313131;fill-opacity:1;fill-rule:nonzero;stroke:none"
         d="m 1999.58,2059.67 c -0.04,0.01 -0.06,0.01 -0.07,0.02 v 0 l 0.01,-0.01 c 0.02,0 0.04,-0.01 0.06,-0.01 m -0.07,0.01 c 0,0.01 0,0.01 0,0.01 v 0 0 c 0,0 0,0 0,-0.01 m -0.52,0.14 c -8.35,2.12 -117.8,30.03 -278.46,72.39 -167.23,44.05 -389.8,104.14 -611.69,166.45 -229.973,64.35 -459.262,131 -630.895,182.05 -171.648,51.01 -285.773,85.99 -285.773,85.99 0,0 115.855,-29.53 289.191,-75.3 173.34,-45.73 404.032,-108.12 633.987,-172.8 221.94,-62.19 443.14,-126.59 608.69,-175.9 158.22,-47.08 265.73,-80.03 274.95,-82.85 0,-0.01 0,-0.02 0,-0.03" /><path
         id="path36"
         style="fill:#313131;fill-opacity:1;fill-rule:nonzero;stroke:none"
         d="m 1999.76,2059.54 -0.03,0.01 c -0.07,0.04 -0.13,0.07 -0.16,0.1 -0.01,0 -0.03,0.01 -0.04,0.02 0.03,-0.02 0.06,-0.03 0.08,-0.04 0.1,-0.06 0.15,-0.09 0.15,-0.09 m -0.23,0.13 v 0 c 0,0 -0.01,0 -0.01,0.01 v 0 h -0.01 v 0 c 0.01,0 0.01,0 0.01,-0.01 0.01,0 0.01,0 0.01,0 m -0.01,0.01 v 0 0 0 m -0.52,0.3 c -9.43,5.45 -105.75,61.22 -245.98,143.93 -147.75,87.11 -344,204.47 -539.01,323.82 -201.8,123.24 -402.256,248.51 -551.975,343.38 -149.734,94.84 -248.98,158.92 -248.98,158.92 0,0 102.39,-59.24 255.105,-149.39 152.715,-90.11 355.53,-211.51 557.11,-334.98 195.11,-119.27 388.93,-240.49 533.7,-332.31 137.52,-87.17 230.99,-147.5 240.03,-153.33 0,-0.02 0,-0.03 0,-0.04" /><path
         id="path44"
         style="fill:#313131;fill-opacity:1;fill-rule:nonzero;stroke:none"
         d="m 1999.79,2059.63 -0.25,0.05 c -0.01,0 -0.02,0 -0.03,0.01 v 0 c 0.03,-0.01 0.11,-0.02 0.25,-0.04 l 0.03,-0.02 m -0.24,0.05 c -0.01,0 -0.01,0 -0.01,0 v 0 h 0.01 m -0.02,0 c -0.01,0.01 -0.02,0.01 -0.02,0.01 v 0 h 0.01 l 0.01,-0.01 m -0.54,0.09 c -10.24,1.64 -121.72,19.54 -284.79,47.06 -171.23,28.86 -399.24,68.72 -626.76,110.85 -235.366,43.36 -470.268,89.07 -646.221,124.43 -175.953,35.33 -293.055,59.88 -293.055,59.88 0,0 118.289,-18.97 295.422,-48.94 177.133,-29.92 413.016,-71.26 648.394,-114.94 227.49,-42 454.4,-86.24 624.49,-120.49 162.55,-32.69 273.08,-55.84 282.52,-57.82 0,-0.01 0,-0.02 0,-0.03" /><path
         id="path46"
         style="fill:#313131;fill-opacity:1;fill-rule:nonzero;stroke:none"
         d="m 1998.98,2059.72 c -8.54,0.59 -122.23,8.47 -289.35,21.39 -173.86,13.4 -405.49,32.67 -636.85,54.25 -238.663,22.05 -477.1,46.47 -655.807,65.86 -178.715,19.37 -297.75,33.29 -297.75,33.29 0,0 119.625,-8.27 299.082,-22.21 179.453,-13.91 418.574,-33.89 657.415,-56.26 231.45,-21.45 462.54,-45.2 635.69,-64.05 164.54,-17.88 276.81,-30.98 287.58,-32.24 0,-0.01 -0.01,-0.02 -0.01,-0.03" /><path
         id="path48"
         style="fill:#313131;fill-opacity:1;fill-rule:nonzero;stroke:none"
         d="m 1193.34,2051.97 c -42.57,0 -85.52,0.07 -128.43,0.22 -239.754,0.61 -479.515,3.6 -659.32,6.93 -179.809,3.3 -299.672,6.51 -299.672,6.51 0,0 120.078,2.45 300.191,4.61 143.481,1.75 325.008,3.04 514.305,3.04 48.324,0 97.196,-0.08 146.026,-0.26 233.46,-0.67 466.75,-3.64 641.65,-6.93 168.13,-3.12 282.32,-6.16 290.89,-6.39 0,-0.01 0,-0.02 0,-0.02 -8.6,-0.18 -123.13,-2.5 -291.63,-4.58 -143.02,-1.79 -325.02,-3.13 -514.01,-3.13" /><path
         id="path52"
         style="fill:#313131;fill-opacity:1;fill-rule:nonzero;stroke:none"
         d="m 124.043,1729.31 c 0,0 117.68,23.58 294.484,57.49 176.735,33.93 412.942,77.81 649.433,119.35 232.69,41.05 465.55,79.8 640.27,107.8 162.06,26 274.07,43.12 289.46,45.46 0.31,0.01 0.61,0.05 0.87,0.09 -11.35,-2.27 -124.14,-24.83 -289.18,-56.51 -174.14,-33.47 -406.5,-76.68 -639.14,-117.6 -236.037,-41.68 -472.529,-81.05 -650.088,-109.53 -177.558,-28.52 -296.109,-46.55 -296.109,-46.55" /><path
         id="path54"
         style="fill:#313131;fill-opacity:1;fill-rule:nonzero;stroke:none"
         d="m 155.559,1564.55 c 0,0 115.043,33.79 288.035,83.05 172.976,49.29 404.015,113.64 635.676,175.75 229.6,61.72 459.6,121.16 632.28,164.7 168.37,42.48 282.17,70.23 287.74,71.59 0.09,0.02 0.15,0.03 0.19,0.04 -0.04,-0.01 -0.07,-0.02 -0.09,-0.02 -3.99,-1.18 -117.21,-34.42 -285.84,-82.46 -171.69,-48.95 -400.92,-112.82 -630.66,-174.45 C 851.684,1740.6 620.074,1680.71 445.957,1636.81 271.879,1592.88 155.559,1564.55 155.559,1564.55" /><path
         id="path56"
         style="fill:#313131;fill-opacity:1;fill-rule:nonzero;stroke:none"
         d="m 201.797,1403.87 c 0,0 111.605,43.04 279.019,107.63 167.618,64.07 391.629,148.18 616.484,230.13 224.84,82.1 450.3,161.96 619.67,220.84 164.81,57.32 276.41,95.14 282.29,97.13 l 0.03,0.01 c 0,0 0.06,0.02 0.17,0.06 -2.39,-0.92 -113.63,-43.83 -279.57,-107.86 C 1551.97,1887.62 1327.7,1803.4 1102.83,1721.43 878.574,1639.55 653.441,1559.82 484.199,1501.02 314.977,1442.18 201.797,1403.87 201.797,1403.87" /><path
         id="path58"
         style="fill:#313131;fill-opacity:1;fill-rule:nonzero;stroke:none"
         d="m 261.887,1248.34 c 0,0 107.121,52.44 267.801,131.1 160.933,78.17 376.152,181.16 592.392,282.08 218.39,102.05 437.63,201.94 602.46,275.86 161.41,71.8 270.18,120.18 274.81,122.24 l -0.13,-0.06 c 0,0 0.08,0.03 0.24,0.11 -0.03,-0.02 -0.05,-0.03 -0.06,-0.03 -3.83,-1.88 -111.26,-54.46 -270.96,-132.63 -162.83,-79.08 -380.45,-183.19 -598.89,-285.13 C 913.848,1541.14 697.09,1442.44 534.047,1369.35 370.754,1296.74 261.887,1248.34 261.887,1248.34 m 1737.593,811.34 h 0.01 v 0 0 0 h -0.01" /><path
         id="path60"
         style="fill:#313131;fill-opacity:1;fill-rule:nonzero;stroke:none"
         d="m 335.277,1099.09 c 0,0 101.817,61.3 254.547,153.25 152.973,91.48 357.906,212.38 563.996,331.31 210.34,121.48 421.62,240.82 580.5,329.35 156.55,86.6 261.76,144.8 265.1,146.64 h 0.01 c -0.12,-0.06 -0.18,-0.1 -0.18,-0.1 l 0.18,0.11 v -0.01 c 0,0.01 0,0.01 0.01,0.01 0.01,0.01 0.03,0.02 0.04,0.02 -0.01,0 -0.02,-0.01 -0.03,-0.01 -2.59,-1.56 -106.09,-63.85 -260.37,-156.7 -156.51,-93.54 -365.81,-216.97 -576.15,-338.31 C 957.438,1446.05 750.703,1329.36 595.102,1242.72 439.203,1156.54 335.277,1099.09 335.277,1099.09 m 1664.213,960.59 v 0 h 0.01 v 0 h -0.01" /><path
         id="path62"
         style="fill:#313131;fill-opacity:1;fill-rule:nonzero;stroke:none"
         d="m 421.461,957.262 c 0,0 95.824,69.608 239.559,174.028 144.074,103.99 337.007,241.55 531.31,377.3 200.48,140.14 402.1,278.24 553.83,380.86 148.24,99.62 248.29,166.84 253.16,170.11 l 0.02,0.01 c 0,0 0.04,0.03 0.13,0.09 0.01,0.01 0.02,0.02 0.03,0.02 v 0 c -0.63,-0.45 -99.57,-72.29 -247.75,-179.87 C 1602.81,1772.37 1403.46,1630.33 1202.88,1490.28 1009.1,1354.95 813.918,1221.39 666.906,1122.03 519.641,1023.16 421.461,957.262 421.461,957.262" /><path
         id="path64"
         style="fill:#313131;fill-opacity:1;fill-rule:nonzero;stroke:none"
         d="m 519.75,823.898 c 0,0 89.098,77.262 222.75,193.152 134.016,115.49 313.64,268.48 494.77,419.8 189.02,157.94 379.38,313.96 522.74,430.08 140.21,112.86 234.82,189 239.32,192.62 l -0.04,-0.04 0.2,0.16 c 0,0.01 0,0.01 0.01,0.01 -0.85,-0.73 -93.87,-81.32 -233.07,-201.93 -140.19,-120.69 -327.99,-280.5 -517.17,-438.4 C 1068.66,1268.58 886.512,1119.46 749.203,1008.38 611.535,897.691 519.75,823.898 519.75,823.898 M 1999.48,2059.67 c 0.01,0.01 0.02,0.01 0.02,0.02 v 0 l -0.01,-0.02 c -0.01,0 -0.01,0 -0.01,0" /><path
         id="path66"
         style="fill:#313131;fill-opacity:1;fill-rule:nonzero;stroke:none"
         d="m 629.141,699.801 c 0,0 81.773,84.23 204.429,210.57 123.055,125.989 288.14,293.049 454.87,458.599 176.02,174.77 353.55,347.74 487.38,476.63 133.78,128.04 223.1,213.53 223.68,214.08 0,0 0,0 0,0.01 -0.48,-0.5 -86.95,-89.46 -216.47,-222.72 C 1652.78,1703.77 1478.2,1527.29 1302.1,1352.61 1135.78,1187.69 967.793,1024.25 841.047,902.352 713.902,780.82 629.141,699.801 629.141,699.801" /><path
         id="path68"
         style="fill:#313131;fill-opacity:1;fill-rule:nonzero;stroke:none"
         d="m 748.801,585.809 c 0,0 73.914,90.492 184.793,226.222 111.296,135.418 260.776,315.149 412.006,493.529 161.53,190.46 324.74,379.25 447.93,520.08 123.28,140.07 205.56,233.58 205.97,234.05 v 0 c -0.38,-0.48 -79.47,-97.15 -197.95,-242 C 1682.38,1672.91 1522.45,1480.87 1360.83,1290.5 1209.87,1112.79 1057.13,936.41 941.766,804.73 825.984,673.379 748.801,585.809 748.801,585.809" /><path
         id="path70"
         style="fill:#313131;fill-opacity:1;fill-rule:nonzero;stroke:none"
         d="m 877.836,482.711 c 0,0 65.605,96.019 164.024,240.039 98.86,143.75 231.81,334.7 366.6,524.46 145.63,204.86 293.09,408.2 404.57,560.06 111.6,151.06 186.09,251.9 186.47,252.42 v -0.01 c -0.37,-0.54 -71.36,-104.25 -177.69,-259.6 C 1714.75,1644.68 1570.87,1438.39 1425.14,1233.6 1290.47,1044.53 1153.93,856.621 1050.67,716.219 946.973,576.109 877.836,482.711 877.836,482.711" /><path
         id="path72"
         style="fill:#313131;fill-opacity:1;fill-rule:nonzero;stroke:none"
         d="m 1015.31,391.191 c 0,0 56.92,100.821 142.3,252.028 85.84,150.98 201.48,351.652 319.05,551.301 128.46,217.9 258.9,434.44 357.58,596.17 98.88,160.95 164.89,268.39 165.26,268.99 v 0 c -0.37,-0.65 -62.61,-110.64 -155.82,-275.38 -93.98,-164.92 -220.5,-384 -349.01,-601.75 C 1377.07,983.551 1257.53,785.551 1166.99,637.512 1075.98,489.73 1015.31,391.191 1015.31,391.191" /><path
         id="path74"
         style="fill:#313131;fill-opacity:1;fill-rule:nonzero;stroke:none"
         d="m 1160.24,311.93 c 0,0 47.91,104.859 119.77,262.129 72.33,157.043 170.06,366.031 269.84,574.231 110.03,229.27 222.12,457.32 307.14,627.78 85.23,169.63 142.15,282.9 142.51,283.61 v 0 c 0,0 -0.01,-0.02 -0.02,-0.04 v 0 l -0.01,-0.03 c -1.52,-3.31 -54.13,-118.11 -132.46,-289.06 C 1787,1597.32 1679.03,1367.06 1568.93,1137.93 1469.08,930.461 1367.21,723.832 1289.9,569.242 1212.1,414.852 1160.24,311.93 1160.24,311.93" /><path
         id="path76"
         style="fill:#313131;fill-opacity:1;fill-rule:nonzero;stroke:none"
         d="m 1311.67,245.762 c 0,0 38.65,108.136 96.63,270.34 58.5,162.109 137.76,377.839 219.08,592.858 90.51,238.87 183.2,476.71 253.72,654.62 69.4,173.58 116.21,290.63 118.33,295.92 l -0.03,-0.06 c 0,0 0.03,0.07 0.09,0.2 -0.96,-2.66 -43.86,-122.25 -107.85,-300.65 C 1826.37,1578.81 1738,1339.1 1647.38,1100.32 1565.83,885.91 1482.22,672.148 1418.57,512.148 1354.43,352.309 1311.67,245.762 1311.67,245.762 m 687.81,1813.878 c 0.01,0.02 0.02,0.04 0.02,0.04 v 0 c 0,0 0,-0.01 -0.01,-0.02 0,-0.01 0,-0.01 -0.01,-0.02" /><path
         id="path78"
         style="fill:#313131;fill-opacity:1;fill-rule:nonzero;stroke:none"
         d="m 1468.4,193.059 c 0,0 29.21,110.711 73.03,276.761 44.32,165.93 104.69,386.871 167.16,607.26 70.09,246.57 142.46,492.35 197.79,676.32 55.12,181.3 92.11,302.97 93.1,306.22 l -0.05,-0.19 v 0 0 c 0,0.01 0.02,0.08 0.06,0.2 -0.82,-3.07 -33.47,-126.23 -82.15,-309.81 -49.86,-185.75 -117.76,-433 -187.98,-679.58 C 1666.53,850.328 1601.61,630.922 1551.96,466.602 1501.83,302.48 1468.4,193.059 1468.4,193.059 m 531.1,1866.601 c 0,0.01 0,0.01 0,0.01 v 0 c 0,0 0,0 0,-0.01 m 0,0.01 v 0.01 c 0,0 0,0 0,-0.01 v 0 0" /><path
         id="path80"
         style="fill:#313131;fill-opacity:1;fill-rule:nonzero;stroke:none"
         d="m 1629.22,154.191 c 0,0 19.62,112.5 49.04,281.258 29.94,168.66 71.15,393.332 114.49,617.631 48.96,252.3 100.28,504.04 139.85,692.59 39.15,183.74 65.57,307.75 66.85,313.79 h 0.01 c 0,0 0.01,0.07 0.04,0.19 v 0.01 c -1.07,-6.09 -23.04,-131.13 -55.6,-316.4 -33.95,-189.86 -80.68,-442.73 -129.8,-695.12 -43.79,-224.05 -89.67,-447.531 -125.05,-614.992 -35.9,-167.378 -59.83,-278.957 -59.83,-278.957 M 1999.5,2059.65 c 0,0 0,0 0,0.01 0,-0.01 0,-0.01 0,-0.01 v 0 m 0,0.01 v 0 0 0 m 0,0.01 c 0,0.01 0,0.01 0,0.01 v 0 0 0 0 0 0 0 0.01 0 0 c 0,-0.01 0,-0.01 0,-0.01 v -0.01 m 0.01,0.04 c 0,0 0,0 -0.01,0 0.01,0 0.01,0.01 0.01,0.01 v -0.01 0 m 0,0.02 c 0,0.01 0,0.01 0,0.02 0.02,0.09 0.03,0.14 0.03,0.14 l -0.03,-0.16" /><path
         id="path82"
         style="fill:#313131;fill-opacity:1;fill-rule:nonzero;stroke:none"
         d="m 1792.87,129.301 c 0,0 9.93,113.578 24.84,283.937 15.42,170.332 37.3,397.301 61.32,624.052 27.34,256.02 57.09,511.73 80.51,703.34 23.25,185.62 38.99,311.27 39.94,318.87 l 0.01,0.03 c 0,0 0,0.03 0.01,0.09 0,0.02 0,0.03 0,0.05 v 0 c -0.45,-5.09 -11.73,-132.04 -28.49,-320.56 -17.68,-192.36 -42.75,-448.78 -70.21,-704.7 -24.51,-226.5 -51.16,-452.82 -72.12,-622.461 -21.49,-169.59 -35.81,-282.648 -35.81,-282.648 m 206.64,1930.409 v 0.01 0.01 c 0,0.02 0.01,0.05 0.01,0.08 0,-0.02 -0.01,-0.04 -0.01,-0.06 0,-0.01 0,-0.01 0,-0.02 0,0 0,0 0,-0.01 0,0 0,0 0,-0.01" /><path
         id="path84"
         style="fill:#313131;fill-opacity:1;fill-rule:nonzero;stroke:none"
         d="m 1958.1,118.559 c 0,0 0.22,113.941 0.55,284.839 0.85,170.891 3.29,398.723 7.89,626.472 5.43,257.58 13.29,515.08 20.31,708.16 7.45,189.49 12.47,316.97 12.65,321.61 -0.01,-2.84 -0.43,-130.92 -1.07,-321.96 -1.23,-193.21 -4.35,-450.82 -9.91,-708.38 -5.12,-227.741 -12.39,-455.429 -18.83,-626.179 -6.96,-170.742 -11.59,-284.562 -11.59,-284.562 m 41.4,1941.081 c 0,0.01 0,0.02 0,0.03 v 0 0 c 0,0.01 0,0.01 0,0.01 v 0 0 0 c 0,-0.01 0,-0.01 0,-0.02 0,0 0,-0.01 0,-0.02 m 0,0.08 v 0 l 0.01,0.05 c 0,0 0,-0.02 0,-0.05 h -0.01" /><path
         id="path86"
         style="fill:#313131;fill-opacity:1;fill-rule:nonzero;stroke:none"
         d="m 2123.64,122.219 c 0,0 -9.49,113.519 -23.72,283.82 -13.71,170.32 -30.68,397.492 -45.51,624.761 -16.53,257.05 -30.63,514.18 -40.1,707.2 -8.68,188.58 -14.53,315.75 -14.8,321.56 0,0.01 0,0.02 0,0.03 0,0.01 0,0.02 0,0.03 0.48,-5.81 10.9,-132.6 26.34,-320.61 15.23,-192.55 34.06,-449.41 50.47,-706.48 14.31,-227.428 26.48,-454.999 34.62,-625.721 7.62,-170.758 12.7,-284.59 12.7,-284.59 M 1999.51,2059.62 c 0,0 0,0 0,0.01 0,0.01 0,0.03 -0.01,0.04 0.01,-0.01 0.01,-0.01 0.01,-0.02 v 0 c 0,-0.01 0,-0.01 0,-0.02 0,-0.01 0,-0.01 0,-0.01 m 0,0.06 v 0 0 0 m 0,0 v 0 0 0 0 m 0,0 v 0 0 0 0 m 0,0 v 0 0 0 0 m 0,0 v 0 0 0 0 m 0,0 v 0 0 0 0 m 0,0 c 0,0 0,0 0,0.01 v 0 0 -0.01 m 0,0.01 v 0 0 0 0 m 0,0 v 0 0 0 0 0 m 0,0 v 0 0 0 m 0,0 v 0 0 0 0 0 0 m -0.01,0 v 0 0 0 0 m 0.01,0 v 0 0 0 m -0.01,0 v 0 l 0.01,0.01 v -0.01 0 c 0,0 0,0 -0.01,0 m 0.01,0 v 0 0 0 m -0.01,0.01 v 0 0.01 0 c 0.01,0 0.01,0 0.01,0 -0.01,-0.01 -0.01,-0.01 -0.01,-0.01 m 0,0 c 0,0.01 0,0.01 0,0.01 0,0.02 0,0.04 0,0.06 v 0 c 0,0 0,-0.02 0,-0.05 v 0 c 0,-0.01 0,-0.01 0,-0.02" /><path
         id="path88"
         style="fill:#313131;fill-opacity:1;fill-rule:nonzero;stroke:none"
         d="m 2288.24,139.988 c 0,0 -19.14,112.41 -47.85,281.032 -28.19,168.691 -64.48,393.761 -98.64,619.14 -38.35,254.51 -74.29,509.39 -100.15,700.71 -24.48,185.38 -41.05,310.91 -42.07,318.62 0,0.04 -0.01,0.07 -0.01,0.1 0,-0.03 0.01,-0.07 0.02,-0.11 1.35,-8 22.4,-132.64 53.45,-316.57 31.54,-190.29 72.14,-444.32 110.34,-698.77 33.69,-225.699 65.25,-451.699 87.95,-621.331 22.18,-169.688 36.96,-282.821 36.96,-282.821 M 1999.52,2059.59 c -0.01,0.03 -0.01,0.04 -0.01,0.06 0,0.01 0,0.01 -0.01,0.02 v 0 0.01 0 0 c 0,0 0.01,-0.01 0.01,-0.03 v 0 c 0,-0.01 0,-0.01 0,-0.01 0,-0.02 0.01,-0.03 0.01,-0.05 m -0.01,0.07 c 0,0.01 -0.01,0.02 -0.01,0.02 v 0 c 0,0 0.01,0 0.01,-0.01 v -0.01 m 0,0.01 c 0,0.01 -0.01,0.01 -0.01,0.01 v 0 h 0.01 c 0,-0.01 0,-0.01 0,-0.01 m 0,0.01 h -0.01 v 0 h 0.01 v 0 0 m 0,0 h -0.01 v 0 h 0.01 v 0 0 m 0,0 h -0.01 v 0 h 0.01 v 0 m 0,0 h -0.01 v 0.01 c 0,-0.01 0.01,-0.01 0.01,-0.01 v 0 m 0,0 c 0,0 -0.01,0 -0.01,0.01 v 0 c 0,-0.01 0.01,-0.01 0.01,-0.01 v 0 m 0,0 c 0,0 -0.01,0 -0.01,0.01 v 0 l 0.01,-0.01 v 0 m 0,0 -0.01,0.01 v 0 c 0,0 0.01,0 0.01,-0.01 v 0 m 0,0.01 h -0.01 v 0 c 0.01,0 0.01,0 0.01,0 v 0 m -0.01,0 v 0 0 0 0 m 0,0 v 0 0 0 0 m 0.01,0 c 0,0 0,0 -0.01,0 0.01,0 0,0 0.01,0 v 0 0 m -0.01,0 v 0 0 0 0 m 0,0 v 0 0 0 m 0.01,0 v 0 0 0 m -0.01,0 v 0 0 0 m 0,0 v 0 0 0 m 0,0 v 0 c 0,0 0,0 0.01,0 v 0 h -0.01 v 0 m 0,0 v 0 0 0 0 m 0,0 v 0 0 0 m 0,0 c 0,0.01 0,0.01 0,0.02 0,0 0,0 0,-0.01 v 0 -0.01 m 0,0 v 0.01 0 0 -0.01" /><path
         id="path90"
         style="fill:#313131;fill-opacity:1;fill-rule:nonzero;stroke:none"
         d="m 2450.63,171.891 c 0,0 -28.7,110.578 -71.73,276.449 -42.52,165.93 -98,387.73 -151.33,609.83 -59.75,249.73 -117.13,500.02 -159.08,688 -40.88,185.76 -68.3,310.38 -68.98,313.46 v 0 c 0,0.01 0,0.02 0,0.02 0,0.02 -0.01,0.03 -0.01,0.03 v 0 c 0,0 0.01,-0.01 0.01,-0.02 0.01,-0.02 0.02,-0.07 0.03,-0.14 1.32,-5.08 33.02,-127.93 80.08,-310.3 47.51,-186.45 109.43,-435.46 169.03,-685.16 52.94,-222.521 103.76,-445.501 140.91,-612.939 36.64,-167.539 61.07,-279.23 61.07,-279.23" /><path
         id="path92"
         style="fill:#313131;fill-opacity:1;fill-rule:nonzero;stroke:none"
         d="m 2609.57,217.672 c 0,0 -38.12,108.09 -95.31,270.238 -56.68,162.301 -131,379.051 -203.23,596.41 -80.52,242.91 -158.75,486.63 -216.39,669.78 -55.78,179.17 -93.39,299.98 -95.08,305.4 -0.03,0.08 -0.04,0.14 -0.05,0.17 0,0.01 -0.01,0.01 -0.01,0.01 v 0 c 0,0 0.01,0 0.01,-0.01 0,0 0,-0.01 0.01,-0.03 v -0.01 c 1.07,-3.03 43.16,-122.85 105.88,-301.44 63,-181.12 145.64,-423.16 226.04,-666.13 71.93,-217.888 141.79,-436.412 193.24,-600.572 50.94,-164.289 84.89,-273.816 84.89,-273.816" /><path
         id="path94"
         style="fill:#313131;fill-opacity:1;fill-rule:nonzero;stroke:none"
         d="m 2763.79,277.191 c 0,0 -47.34,104.829 -118.37,262.079 -70.53,157.441 -163.32,367.82 -254.08,578.94 -100.49,234.19 -198.78,469.4 -271.51,646.27 -71.26,174.85 -119.08,292.16 -120.3,295.15 -0.01,0.01 -0.02,0.03 -0.02,0.04 0,0 0,0 0,0.01 h -0.01 v 0 h 0.01 c 0,-0.01 0,-0.01 0,-0.02 0.01,-0.01 0.01,-0.02 0.02,-0.03 1.34,-2.97 53.24,-118.26 130.59,-290.08 77.86,-174.35 180.38,-407.52 280.77,-641.82 90.59,-211.761 179.19,-424.41 244.64,-584.089 64.95,-159.871 108.26,-266.45 108.26,-266.45" /><path
         id="path96"
         style="fill:#313131;fill-opacity:1;fill-rule:nonzero;stroke:none"
         d="m 2912.1,349.988 c 0,0 -56.3,100.813 -140.76,252.032 -84,151.46 -194.77,353.96 -303.58,557.38 -119.44,223.65 -236.82,448.53 -323.92,617.76 -85.46,167.28 -142.81,279.54 -144.31,282.47 0,0.01 0,0.01 -0.01,0.02 0,0.01 -0.01,0.02 -0.01,0.03 h -0.01 v 0 h 0.01 v -0.01 c 0.01,-0.01 0.02,-0.03 0.03,-0.04 1.62,-2.91 62.83,-112.79 154.03,-276.51 91.97,-166.25 213.36,-388.74 332.76,-612.54 C 2595.14,966.391 2701.8,761.5 2780.98,607.309 2859.65,452.922 2912.1,349.988 2912.1,349.988 M 1999.5,2059.68 v 0.01 0 -0.01" /><path
         id="path98"
         style="fill:#313131;fill-opacity:1;fill-rule:nonzero;stroke:none"
         d="m 3053.43,435.461 c 0,0 -64.95,96.051 -162.38,240.148 -96.97,144.34 -225.1,337.491 -351.32,531.711 -137.28,211.45 -272.64,424.32 -373.28,584.62 -98.81,158.46 -165.12,264.82 -166.91,267.69 -0.01,0.02 -0.02,0.03 -0.03,0.04 0,0.01 0,0.01 0,0.01 v 0 h -0.01 v 0 h 0.01 v 0 0 c 0,-0.01 0.02,-0.03 0.03,-0.05 1.91,-2.83 71.85,-106.48 176.03,-260.88 105.18,-156.91 244.36,-367.13 381.51,-578.63 126.28,-194.89 250.66,-390.89 343.08,-538.39 91.96,-147.761 153.27,-246.269 153.27,-246.269 M 1999.5,2059.69 v 0 0 0 0" /><path
         id="path100"
         style="fill:#313131;fill-opacity:1;fill-rule:nonzero;stroke:none"
         d="m 3186.81,532.852 c 0,0 -73.23,90.578 -183.05,226.449 -109.4,136.16 -254.14,318.489 -397.06,502.059 -153.85,197.75 -305.92,397.08 -419.16,547.31 -111.23,148.48 -185.91,248.18 -187.99,250.96 -0.02,0.02 -0.04,0.04 -0.04,0.05 v 0 0 h -0.01 v 0 h 0.01 v 0 0 c 0,-0.01 0.02,-0.03 0.04,-0.05 2.21,-2.73 80.22,-99.41 196.41,-243.39 117.44,-146.45 272.96,-342.69 426.71,-540.53 143.11,-184.25 284.44,-369.769 389.6,-509.491 104.72,-140.02 174.54,-233.367 174.54,-233.367 M 1999.5,2059.69 v 0 0 0 0" /><path
         id="path102"
         style="fill:#313131;fill-opacity:1;fill-rule:nonzero;stroke:none"
         d="m 3311.27,641.488 c 0,0 -81.05,84.391 -202.61,210.961 -121.14,126.922 -281.63,296.991 -440.4,468.491 -169.04,182.67 -336.47,367.09 -461.33,506.2 -122.63,137.49 -204.99,229.81 -207.37,232.49 -0.03,0.03 -0.05,0.04 -0.05,0.05 v 0 0 c 0,0 -0.01,0 -0.01,0.01 v 0 c 0,-0.01 0.01,-0.01 0.01,-0.01 v 0 c 0,0 0.02,-0.02 0.05,-0.05 2.52,-2.64 87.9,-91.65 215,-224.19 128.65,-134.98 299.21,-316.01 468.15,-498.77 159.12,-172.15 316.52,-345.721 433.79,-476.549 116.86,-131.172 194.77,-218.633 194.77,-218.633 M 1999.5,2059.69 v 0 0 0 0 0" /><path
         id="path104"
         style="fill:#313131;fill-opacity:1;fill-rule:nonzero;stroke:none"
         d="m 3425.9,760.641 c 0,0 -88.35,77.488 -220.87,193.718 -132.13,116.621 -307.34,273.071 -480.95,431.081 -182.76,166.38 -364.19,334.69 -499.57,461.76 -132.93,125.53 -222.23,209.86 -224.94,212.43 -0.04,0.03 -0.06,0.05 -0.06,0.05 v 0 c 0,0 -0.01,0 -0.01,0.01 v 0 c 0,-0.01 0.01,-0.01 0.01,-0.01 v 0 0 c 0,0 0.03,-0.02 0.06,-0.05 2.86,-2.52 94.86,-83.3 231.76,-203.53 138.75,-122.6 322.88,-287.21 505.58,-453.71 C 2911,1243.78 3083.49,1083.58 3212.13,962.719 3340.39,841.461 3425.9,760.641 3425.9,760.641" /><path
         id="path106"
         style="fill:#313131;fill-opacity:1;fill-rule:nonzero;stroke:none"
         d="m 3529.83,889.469 c 0,0 -95.06,69.929 -237.65,174.831 -142.23,105.3 -331,246.77 -518.45,390.05 -195.09,149.09 -388.86,300.12 -533.57,414.29 -142.05,112.76 -237.51,188.55 -240.58,190.99 -0.04,0.03 -0.06,0.05 -0.07,0.05 v 0 0 l -0.01,0.01 v 0 l 0.01,-0.01 v 0 0 c 0.01,0 0.02,-0.01 0.04,-0.03 0.01,-0.01 0.02,-0.01 0.04,-0.02 0.03,-0.03 0.07,-0.06 0.12,-0.09 v 0 c 5.03,-3.71 102.36,-75.38 246.45,-181.48 147.71,-109.47 343.89,-256.62 538.84,-405.78 187.88,-143.71 374.32,-289.14 513.49,-399.01 138.8,-110.27 231.34,-183.801 231.34,-183.801" /><path
         id="path108"
         style="fill:#313131;fill-opacity:1;fill-rule:nonzero;stroke:none"
         d="m 3622.24,1027.15 c 0,0 -101.17,61.78 -252.92,154.43 -151.45,93.11 -352.58,218.38 -552.41,345.49 -205.66,130.79 -410.19,263.62 -563.06,364.19 -149.95,99.3 -250.78,166.06 -254.25,168.37 -0.01,0 -0.02,0 -0.02,0.01 -0.02,0.01 -0.03,0.01 -0.04,0.02 l -0.01,0.01 c -0.01,0.01 -0.02,0.01 -0.02,0.01 v 0 0 c 0,0.01 -0.01,0.01 -0.01,0.01 v 0 0 h 0.01 c 0,-0.01 0,-0.01 0,-0.01 v 0 h 0.01 c 0,-0.01 0.01,-0.01 0.01,-0.01 0,0 0,0 0.01,-0.01 0.01,0 0.02,-0.01 0.03,-0.01 0.03,-0.03 0.09,-0.06 0.16,-0.1 5.45,-3.33 107.81,-65.87 259.29,-158.44 155.46,-95.65 362.11,-224.46 567.73,-355.37 200.37,-127.49 399.47,-256.86 548.19,-354.73 148.38,-98.32 247.3,-163.86 247.3,-163.86" /><path
         id="path110"
         style="fill:#313131;fill-opacity:1;fill-rule:nonzero;stroke:none"
         d="m 3702.05,1172.86 c 0,0 -106.49,53 -266.24,132.48 -159.48,79.97 -371.43,187.8 -582.22,297.6 -214.6,111.72 -428.26,225.58 -588.08,311.94 -156.58,85.24 -261.95,142.6 -265.89,144.74 -0.05,0.03 -0.08,0.04 -0.1,0.05 0,0.01 0,0.01 -0.01,0.01 0,0 0,0 0,0.01 v 0 c 0,0 0,0 -0.01,0 v 0 c 0.01,0 0.01,0 0.01,0 v 0 c 0,-0.01 0,-0.01 0.01,-0.01 v 0 0 c 0.02,-0.01 0.06,-0.03 0.11,-0.06 0.01,0 0.02,-0.01 0.03,-0.01 0.01,0 0.01,-0.01 0.01,-0.01 4.84,-2.4 111.7,-55.61 270.16,-134.5 162.01,-81.28 377.49,-190.99 592.16,-302.86 211.33,-110.05 421.52,-222.08 578.64,-307.02 156.85,-85.42 261.42,-142.36 261.42,-142.36" /><path
         id="path112"
         style="fill:#313131;fill-opacity:1;fill-rule:nonzero;stroke:none"
         d="m 3768.86,1325.39 c 0,0 -111.02,43.68 -277.55,109.22 -166.3,66.03 -387.46,155.37 -607.65,246.79 -221.87,92.02 -443.03,186.25 -608.56,257.93 -161.88,70.7 -270.94,118.32 -275.45,120.29 -0.03,0.02 -0.06,0.03 -0.08,0.04 -0.02,0.01 -0.03,0.01 -0.04,0.02 -0.01,0 -0.02,0 -0.02,0.01 v 0 0 0 0 0 c 0,-0.01 0.01,-0.01 0.03,-0.02 0.01,0 0.02,0 0.03,-0.01 0.04,-0.01 0.1,-0.04 0.17,-0.07 5.78,-2.24 116.03,-45.05 278.79,-109.75 167.25,-66.43 389.8,-156.35 611.64,-248.49 220.76,-91.57 440.58,-185.24 605.02,-256.44 164.2,-71.72 273.67,-119.52 273.67,-119.52" /><path
         id="path114"
         style="fill:#313131;fill-opacity:1;fill-rule:nonzero;stroke:none"
         d="m 3822.1,1483.63 c 0,0 -114.87,33.36 -286.7,84.83 -171.84,51.42 -400.5,121.34 -628.38,193.43 -227.45,71.83 -454.42,145.93 -624.44,202.55 -165.97,55.23 -277.68,93.4 -282.89,95.18 -0.08,0.03 -0.14,0.05 -0.17,0.06 0,0 0,0 -0.01,0 v 0.01 0 0 c 0.01,-0.01 0.03,-0.01 0.07,-0.02 0.03,-0.02 0.09,-0.03 0.15,-0.05 5.74,-1.67 118.55,-34.47 285.28,-84.41 171.18,-51.23 399.12,-120.93 626.56,-192.89 228.49,-72.12 456.25,-146.46 626.72,-203.22 170.48,-56.72 283.81,-95.47 283.81,-95.47" /><path
         id="path116"
         style="fill:#313131;fill-opacity:1;fill-rule:nonzero;stroke:none"
         d="m 3861.14,1646.48 c 0,0 -117.48,23.21 -293.53,59.5 -176.06,36.26 -410.47,85.98 -644.33,137.98 -231.4,51.29 -462.4,104.87 -635.48,146.1 -168.15,40.02 -281.7,68 -288.02,69.56 -0.13,0.03 -0.22,0.05 -0.26,0.06 l -0.01,0.01 v 0 c 0,0 0,0 0,-0.01 v 0 c 0.01,0 0.02,0 0.03,0 0,0 0,0 0.01,0 0.06,-0.01 0.16,-0.03 0.32,-0.06 7.23,-1.43 121.3,-24 289.51,-58.65 173.85,-35.79 405.49,-84.91 636.84,-136.32 234.35,-51.91 468.16,-106.1 643.28,-147.78 175.13,-41.65 291.64,-70.39 291.64,-70.39" /><path
         id="path118"
         style="fill:#313131;fill-opacity:1;fill-rule:nonzero;stroke:none"
         d="m 3885.01,1812.81 c 0,0 -119.26,12.78 -297.95,33.42 -178.69,20.62 -416.77,49.52 -654.49,80.75 -233.47,30.51 -466.76,63.33 -641.65,89 -168.27,24.66 -282.5,42.33 -290.92,43.63 -0.09,0.01 -0.18,0.03 -0.24,0.04 -0.14,0.02 -0.22,0.03 -0.25,0.04 v 0 0 0 c 0,0 0.01,0 0.02,-0.01 0.06,0 0.23,-0.02 0.49,-0.05 8.6,-0.92 123.13,-13.22 291.63,-32.66 175.24,-20.19 409.02,-48.52 642.44,-79.16 238.09,-31.05 475.87,-64.44 654.06,-90.55 178.21,-26.08 296.86,-44.45 296.86,-44.45" /><path
         id="path120"
         style="fill:#313131;fill-opacity:1;fill-rule:nonzero;stroke:none"
         d="m 3894.08,1981.12 c 0,0 -119.92,2.14 -299.73,6.87 -179.83,4.69 -419.54,12.39 -659.13,22.45 -233.86,9.64 -467.79,21.59 -643.25,31.62 -168.7,9.6 -283.35,17.03 -291.95,17.59 -0.28,0.02 -0.45,0.03 -0.5,0.04 h -0.01 v 0 c 0.05,0 0.22,-0.01 0.51,-0.01 8.58,-0.16 123.11,-2.22 291.68,-6.61 175.33,-4.53 409.15,-11.99 643.02,-21.75 239.93,-9.82 479.79,-22 659.65,-32.22 179.85,-10.17 299.71,-17.98 299.71,-17.98" /><path
         id="path122"
         style="fill:#313131;fill-opacity:1;fill-rule:nonzero;stroke:none"
         d="m 1999.52,2059.69 c 0.01,0 0.01,0 0.02,0 0.07,0 0.23,0.02 0.48,0.03 8.53,0.62 122.19,8.74 289.6,19.36 174.15,11.09 406.5,24.46 639.15,35.53 239.73,11.64 479.61,20.89 659.59,26.74 179.97,5.88 300.01,8.79 300.01,8.79 0,0 -119.55,-8.56 -298.96,-19.89 -179.35,-11.35 -418.86,-25.06 -658.37,-36.4 -232.69,-11.21 -465.54,-20.1 -640.27,-25.73 -167.98,-5.43 -282.19,-8.21 -290.75,-8.42 -0.28,-0.01 -0.45,-0.01 -0.5,-0.01" /><path
         id="path124"
         style="fill:#313131;fill-opacity:1;fill-rule:nonzero;stroke:none"
         d="m 1999.5,2059.69 v 0 0 0 0 0 0 0 m 0,0 v 0 0 0 0 0 m 0,0 c 0,0 0,0 0.01,0 v 0 c 0.01,0 0.03,0 0.04,0.01 0.12,0.02 0.27,0.04 0.47,0.07 10.21,1.67 121.69,19.8 285.29,45.08 171.76,26.58 401.06,60.62 630.8,92.4 237.46,33.06 475.06,63.72 653.54,85.66 178.44,21.96 297.55,35.6 297.55,35.6 0,0 -118.2,-19.26 -295.74,-46.62 -177.51,-27.41 -414.45,-62.5 -651.72,-95.23 -229.69,-31.89 -459.78,-61.5 -632.52,-82.66 -164.18,-20.15 -276.48,-33.03 -287.2,-34.26 -0.19,-0.02 -0.35,-0.04 -0.48,-0.05 -0.01,0 -0.01,0 -0.02,0 0,0 0,0 -0.01,0 v 0 0 0 0 0 0 0 0 0 0 c -0.01,0 0,0 -0.01,0 v 0 0 0 m 0,0 v 0 0 0 0 m 0,0 v 0 0 0 0 0 m 0,0 v 0 h 0.01 v 0 0 h -0.01 m 0.01,0 v 0 0 0 0 m -0.01,0 v 0 0 0 m 0.01,0 c 0.01,0 0.01,0 0.01,0 h 0.01 c -0.01,0 -0.01,0 -0.02,0 m 0,0 v 0 0 0" /><path
         id="path126"
         style="fill:#313131;fill-opacity:1;fill-rule:nonzero;stroke:none"
         d="m 1999.51,2059.69 v 0 c 0.01,0 0.01,0 0.02,0 0.06,0.02 0.22,0.06 0.48,0.13 8.33,2.14 117.72,30.3 279.05,70.43 167.9,41.8 392.18,96.18 617.12,148.33 232.92,54.23 466.48,106.15 641.91,144.02 175.43,37.9 292.62,62.18 292.62,62.18 0,0 -115.73,-29.8 -289.73,-73.01 -173.99,-43.25 -406.34,-99.49 -639.27,-153.4 -224.92,-52.28 -450.43,-102.3 -619.82,-138.79 -161.91,-34.92 -272.45,-57.84 -281.88,-59.79 -0.2,-0.04 -0.35,-0.07 -0.46,-0.09 -0.01,-0.01 -0.03,-0.01 -0.04,-0.01" /><path
         id="path128"
         style="fill:#313131;fill-opacity:1;fill-rule:nonzero;stroke:none"
         d="m 1999.23,2059.6 0.14,0.05 c 0,0 0.01,0 0.02,0.01 0.02,0 0.05,0.01 0.09,0.02 h 0.01 -0.01 -0.01 c 0,-0.01 0,-0.01 -0.01,-0.01 -0.11,-0.04 -0.17,-0.06 -0.17,-0.06 l -0.03,-0.01 h -0.03 m 0.26,0.08 v 0 0 0 0 0 m 0,0 c 0.01,0 0.01,0.01 0.01,0.01 v 0 0 0 0 0 0 -0.01 0 0 0 c 0,0 0,0 -0.01,0 m 0,0 c 0,0 0.01,0 0.01,0.01 v 0 c 0,0 0,0 0,-0.01 -0.01,0 -0.01,0 -0.01,0 m 0.01,0.01 v 0 0 0 0 m 0,0 v 0 0 0 0 m 0,0 v 0 0 0 0 0 m 0.01,0 v 0 0 0 c 0.01,0 0.02,0.01 0.03,0.01 -0.01,0 -0.01,0 -0.02,-0.01 0,0 0,0 -0.01,0 v 0 0 m -0.01,0 v 0 0 0 m 0,0 v 0 0 0 0 m 0.04,0.01 c 0.12,0.04 0.28,0.1 0.47,0.17 9.65,3.45 115.2,41.13 270.38,95.13 162.86,56.7 380.55,131 599.07,203.12 226.47,74.98 453.78,147.71 624.65,201.21 170.85,53.54 285.1,88.26 285.1,88.26 0,0 -112.26,-40.09 -281.16,-98.8 -168.91,-58.73 -394.61,-135.66 -621.13,-210.31 -218.43,-72.22 -437.59,-142.24 -602.5,-193.8 -157.55,-49.31 -265.2,-82.04 -274.41,-84.84 -0.2,-0.06 -0.36,-0.11 -0.47,-0.14" /><path
         id="path130"
         style="fill:#313131;fill-opacity:1;fill-rule:nonzero;stroke:none"
         d="m 1999.22,2059.56 0.13,0.06 0.03,0.01 -0.14,-0.05 c 0,0 0.08,0.03 0.23,0.1 h 0.01 c -0.01,-0.01 -0.02,-0.01 -0.02,-0.01 -0.16,-0.08 -0.24,-0.11 -0.24,-0.11 m 0.27,0.12 v 0 c 0,0 0,0 0.01,0 -0.01,0 -0.01,0 -0.01,0 v 0 m 0.01,0.01 v 0 0 0 m 0,0 v 0 0 0 m 0,0 v 0 0 0 m 0.01,0 v 0 0 c 0.12,0.06 0.29,0.14 0.5,0.23 9.84,4.57 111.05,51.55 259.73,119.1 156.55,71.18 365.93,164.81 576.33,256.33 217.94,95.05 436.96,187.93 601.7,256.59 164.72,68.69 274.98,113.56 274.98,113.56 0,0 -107.73,-50.04 -270.03,-123.69 -162.22,-73.67 -379.38,-170.67 -597.53,-265.46 -210.38,-91.64 -421.72,-181.17 -580.67,-247.34 -151.08,-62.94 -254.65,-105.11 -264.51,-109.12 -0.21,-0.08 -0.37,-0.15 -0.5,-0.2 v 0 0" /><path
         id="path132"
         style="fill:#313131;fill-opacity:1;fill-rule:nonzero;stroke:none"
         d="m 1999.25,2059.54 c 0,0 0.06,0.04 0.18,0.1 v 0.01 l -0.18,-0.11 m -0.03,0.01 c 0,0 0.06,0.03 0.18,0.09 0.01,0 0.03,0.01 0.06,0.03 0,0 0.01,0 0.02,0.01 h 0.01 c 0,0 0,0.01 0.01,0.01 0,-0.01 -0.01,-0.01 -0.01,-0.01 v 0 0 0 h -0.01 c -0.01,-0.01 -0.03,-0.02 -0.04,-0.03 -0.01,0 -0.01,0 -0.01,-0.01 h -0.01 l -0.2,-0.09 m 0.28,0.14 v 0 0 0 0 0 0 0 m 0.01,0 v 0 0 0 0 0 0 m 0,0 v 0 0 0 0 0 m -0.01,0 v 0 0 0 m 0.01,0 v 0 0 0 0 0 m 0,0 v 0 0 0 m 0,0 v 0 0 0 m 0,0.01 h 0.01 v 0 c 0,0 0,0 -0.01,0 m 0.01,0 c 0.12,0.07 0.28,0.16 0.48,0.28 9.4,5.47 105.63,61.44 247.09,142.19 149,85.09 348.42,197.33 549.03,307.55 207.47,114.24 416.22,226.42 573.36,309.61 157.04,83.18 262.26,137.74 262.26,137.74 0,0 -102.32,-59.54 -256.61,-147.53 -154.27,-88.02 -360.75,-204.12 -568.46,-318.13 -200.54,-110.33 -402.23,-218.62 -554.01,-298.9 -144.06,-76.22 -242.97,-127.54 -252.65,-132.56 -0.2,-0.1 -0.37,-0.19 -0.49,-0.25" /><path
         id="path134"
         style="fill:#313131;fill-opacity:1;fill-rule:nonzero;stroke:none"
         d="m 1999.29,2059.55 c 0,0 0.05,0.04 0.16,0.11 0.01,0 0.02,0.01 0.03,0.01 0,0.01 0.01,0.01 0.01,0.01 v 0 0 c 0,0 0,0 0.01,0 0,0.01 0,0.01 0,0.01 v 0 0 0 c 0,0 0,-0.01 -0.01,-0.01 v 0 0 c -0.01,-0.01 -0.02,-0.01 -0.02,-0.02 -0.09,-0.06 -0.13,-0.09 -0.13,-0.09 l -0.02,-0.01 -0.03,-0.01 m 0.21,0.14 v 0 0 0 0 m 0.01,0 v 0 0 0 m 0,0 v 0 0 0 m 0,0 v 0 0 0.01 c 0,0 0,0 0,-0.01 v 0 0 m 0.01,0.01 0.01,0.01 c 0.11,0.08 0.27,0.19 0.47,0.33 8.56,6.11 99.11,70.71 232.49,164.21 140.22,98.35 328.08,228.35 517.26,356.4 195.06,132.31 391.61,262.69 539.68,359.58 148.06,96.92 247.39,160.7 247.39,160.7 0,0 -95.95,-68.47 -240.8,-169.94 -144.84,-101.5 -338.84,-235.65 -534.28,-367.84 -189.09,-128.14 -379.5,-254.35 -522.91,-348.12 -136.22,-89.1 -229.81,-149.23 -238.83,-155.02 -0.2,-0.13 -0.36,-0.23 -0.48,-0.31" /><path
         id="path136"
         style="fill:#313131;fill-opacity:1;fill-rule:nonzero;stroke:none"
         d="m 1999.29,2059.51 0.04,0.04 0.05,0.05 c 0,0 0.04,0.02 0.1,0.07 0,0 0,0 0.01,0 l -0.2,-0.16 m 0.2,0.16 0.01,0.02 v 0 0 0 0 0 c 0,-0.01 0,-0.01 0,-0.01 v 0 c -0.01,0 -0.01,0 -0.01,-0.01 m 0.01,0.02 v 0 0 0 0 m 0,0 v 0 h 0.01 c 0,0 0,0 -0.01,0 v 0 0 m 0.01,0 v 0 0 0 0 c 0,0.01 0,0.01 0,0.01 0.04,0.03 0.21,0.17 0.49,0.42 7.15,6.19 91.4,79.04 215.98,184.98 130.22,110.8 304.79,257.43 480.92,402.29 181.1,149.2 363.84,296.62 501.65,406.36 137.79,109.76 230.34,182.17 230.34,182.17 0,0 -88.73,-76.78 -222.89,-190.78 -134.14,-114.03 -313.97,-264.98 -495.43,-414.11 -176.08,-144.98 -353.65,-288.12 -487.5,-394.64 -127.42,-101.44 -214.97,-169.98 -223.07,-176.31 -0.21,-0.17 -0.37,-0.29 -0.47,-0.37 l -0.01,-0.01 v 0 h -0.01 c 0,-0.01 0,-0.01 0,-0.01 v 0" /><path
         id="path138"
         style="fill:#313131;fill-opacity:1;fill-rule:nonzero;stroke:none"
         d="m 1999.5,2059.69 v 0 0 0 0 m 0,0 v 0 0 h 0.01 v 0 0 0 h -0.01 m 0.01,0 v 0 0 c 0.03,0.04 0.19,0.21 0.48,0.51 6.8,7.1 83.71,87.39 197.46,204.17 119.18,122.41 279.11,284.61 440.72,445.13 165.57,164.72 332.94,327.81 459.3,449.38 126.33,121.59 211.32,201.95 211.32,201.95 0,0 -80.76,-84.35 -203.07,-209.84 -122.26,-125.51 -286.4,-291.85 -452.31,-456.55 -161.53,-160.61 -324.75,-319.56 -447.93,-438.01 -117.65,-113.18 -198.5,-189.67 -205.49,-196.28 -0.28,-0.27 -0.45,-0.42 -0.48,-0.46 v 0 0 0 0" /><path
         id="path140"
         style="fill:#313131;fill-opacity:1;fill-rule:nonzero;stroke:none"
         d="m 1999.5,2059.69 v 0 0 0 0 m 0,0 c 0.01,0 0,0 0.01,0 v 0 0 0 0 0 0 0 c -0.01,0 -0.01,0 -0.01,0 m 0.01,0 v 0.01 c 0.03,0.04 0.19,0.24 0.48,0.6 6.38,8.07 75.26,95.09 177.21,221.7 107.06,133.02 250.93,309.46 396.66,484.39 148.64,178.72 299.24,355.99 413.07,488.26 113.81,132.31 190.51,219.88 190.51,219.88 0,0 -72.1,-91.16 -181.51,-226.97 -109.39,-135.82 -256.42,-316.04 -405.39,-494.77 -145.63,-175.02 -293.08,-348.51 -404.56,-477.99 -106.23,-123.42 -179.38,-207.01 -185.99,-214.56 -0.29,-0.33 -0.45,-0.51 -0.48,-0.55" /><path
         id="path142"
         style="fill:#313131;fill-opacity:1;fill-rule:nonzero;stroke:none"
         d="m 1999.5,2059.69 v 0 0 0 0 0 0 0 m 0.01,0 v 0 0 c 0,0 0,0 0,0.01 v -0.01 0 0 0 m 0,0.01 v 0 c 0.04,0.06 0.2,0.31 0.47,0.73 5.91,9.12 66.13,102.1 155.35,237.35 93.98,142.53 220.5,331.77 349.01,519.67 130.48,191.1 263.06,380.93 363.43,522.71 100.36,141.81 168.13,235.8 168.13,235.8 0,0 -62.85,-97.13 -158.48,-242.02 -95.58,-144.9 -224.3,-337.33 -355.08,-528.46 -128.45,-188.05 -258.89,-374.76 -357.57,-514.1 -93.8,-132.5 -158.62,-222.47 -164.79,-231.02 -0.27,-0.39 -0.43,-0.61 -0.47,-0.66" /><path
         id="path144"
         style="fill:#313131;fill-opacity:1;fill-rule:nonzero;stroke:none"
         d="m 1999.5,2059.69 v 0 0 0 c 0.01,0 0.01,0 0.01,0 0,0 0,0 -0.01,0 v 0 0 0 m 0.01,0 c 0,0 0,0 0,0.01 v 0 0 -0.01 m 0.01,0.02 c 0,0.01 0,0.02 0.01,0.03 0.06,0.11 0.2,0.39 0.44,0.85 5.37,10.32 56.37,108.39 132.02,250.94 80.01,150.83 187.99,351.25 298.09,550.55 111.28,201.76 224.75,402.46 310.86,552.48 86.06,150.04 144.37,249.6 144.37,249.6 0,0 -53.1,-102.23 -134.16,-254.89 -80.99,-152.63 -190.38,-355.61 -302,-557.56 -110.03,-199.42 -222.12,-397.62 -307.13,-545.71 -80.5,-140.3 -136.38,-235.83 -142.04,-245.5 -0.27,-0.45 -0.42,-0.71 -0.46,-0.79" /><path
         id="path146"
         style="fill:#313131;fill-opacity:1;fill-rule:nonzero;stroke:none"
         d="m 1999.4,2059.44 0.03,0.06 0.04,0.11 c 0,0.01 0.01,0.02 0.01,0.03 0.01,0.01 0.01,0.01 0.01,0.02 l 0.01,0.01 v 0 0 0 c -0.01,-0.01 -0.01,-0.02 -0.01,-0.03 -0.06,-0.13 -0.09,-0.2 -0.09,-0.2 m -0.01,0.01 v 0 0 m 0,0 0.08,0.16 0.01,0.03 v 0 l -0.01,-0.03 c -0.05,-0.1 -0.07,-0.16 -0.08,-0.16 m 0.11,0.23 v 0 0.01 0 0 0 0 0 0 0 0 0 0 c 0.01,0 0.01,0 0.01,0 v 0 0 0 0 0 0 0 0 0 0.01 0 0 c 0.09,0.23 0.24,0.6 0.45,1.11 5.19,12.86 46.36,114.71 107.34,262.1 65.28,157.85 153.69,367.78 244.32,576.77 91.2,210.67 184.68,420.47 255.82,577.41 71.11,156.96 119.48,261.21 119.48,261.21 0,0 -42.9,-106.37 -108.79,-265.55 -65.86,-159.2 -155.05,-370.91 -246.51,-581.72 -90.52,-209.05 -183.24,-417.11 -253.78,-572.7 -66.03,-145.72 -112.27,-245.57 -117.87,-257.65 -0.2,-0.42 -0.35,-0.73 -0.44,-0.94 -0.01,-0.01 -0.01,-0.02 -0.01,-0.03 -0.01,0 -0.01,0 -0.01,-0.01 v 0 0 -0.01 0 0 0 0 0 0 0 0 c -0.01,0 -0.01,0 -0.01,0 v 0 0 0 0 0 0 0 -0.01 0 0 0 0 0 0 0 0 0 0 0 0 0 0" /><path
         id="path148"
         style="fill:#313131;fill-opacity:1;fill-rule:nonzero;stroke:none"
         d="m 1999.43,2059.43 v 0 0 m -0.02,0 c 0,0 0.03,0.08 0.09,0.23 0,0.01 0,0.01 0,0.01 v 0 0 0.01 c 0,-0.01 0,-0.01 0,-0.02 v 0 c -0.01,-0.01 -0.01,-0.02 -0.01,-0.03 -0.04,-0.12 -0.06,-0.19 -0.06,-0.2 l 0.05,0.19 0.01,0.02 -0.08,-0.21 m 0.09,0.25 v 0 c 0,0 0,0 0,0.01 v 0 0 0 0 0 0 0 0 0 0 0 c 0.01,0 0.01,0 0.01,0 v 0 c 0,0.01 0,0.01 0,0.01 v 0 c 0,-0.01 0,-0.01 0,-0.01 v 0 0 0 0 0 c -0.01,0 0,0 -0.01,0 v 0 0 0 0 0 0 0 0 0 0 0 0 0 -0.01 0 0 0 m 0.01,0.02 c 0.08,0.28 0.22,0.77 0.43,1.46 4.3,14.53 35.42,119.45 81.68,270.92 49.87,163.43 117.79,380.91 188.03,597.67 70.41,217.75 143.16,434.85 198.79,597.36 55.59,162.52 93.62,270.45 93.62,270.45 0,0 -32.45,-109.76 -82.63,-273.99 -50.13,-164.22 -118.4,-382.78 -189.02,-600.64 -70.11,-216.79 -142.5,-432.8 -197.84,-594.43 -51.49,-150.46 -87.83,-253.94 -92.62,-267.54 -0.21,-0.59 -0.35,-1.01 -0.44,-1.26" /><path
         id="path150"
         style="fill:#313131;fill-opacity:1;fill-rule:nonzero;stroke:none"
         d="m 1999.44,2059.44 c 0,0 0.02,0.07 0.06,0.21 v 0 c -0.03,-0.12 -0.04,-0.19 -0.04,-0.19 h -0.01 l -0.01,-0.02 m 0.06,0.21 c 0,0 0,0 0,0.01 v 0 0 c 0,0.01 0,0.01 0,0.02 0,0 0,0 0,0.01 v 0 0 c 0,-0.01 0,-0.02 0,-0.02 0,-0.01 0,-0.01 0,-0.01 v -0.01 m 0,0.03 c 0,0 0,0 0,0.01 v 0 0 0 0.01 c 0,0 0,0 0.01,0.01 v 0 c 0,0.01 0,0.01 0,0.01 0.07,0.35 0.2,1.04 0.4,2.06 3.26,16.79 24.04,123.54 55.19,277.01 33.95,167.49 80.69,390.53 129.8,613.08 49.09,223.05 100.52,445.45 140.19,612.02 39.63,166.6 67.07,277.46 67.07,277.46 0,0 -21.7,-112.1 -55.77,-279.97 -34.05,-167.86 -80.9,-391.4 -130.13,-614.45 -48.97,-222.53 -100.31,-444.5 -139.9,-610.7 -36.48,-153.36 -62.61,-259.34 -66.43,-274.83 -0.21,-0.83 -0.35,-1.4 -0.42,-1.7 l -0.01,-0.01 v 0 0 0 0 0 0 0 0 0 0 0 0 0 0 c 0,-0.01 0,-0.01 0,-0.01" /><path
         id="path152"
         style="fill:#313131;fill-opacity:1;fill-rule:nonzero;stroke:none"
         d="m 1999.47,2059.46 v 0.03 c 0,0 0.01,0.06 0.03,0.18 0,0 0,0.01 0,0.02 v 0 0 0 0 c 0,-0.01 0,-0.01 0,-0.01 v 0 c 0,-0.03 0,-0.05 0,-0.06 -0.01,-0.06 -0.01,-0.09 -0.01,-0.09 l -0.01,-0.03 -0.01,-0.04 m 0.03,0.23 v 0 0.01 -0.01 0 m 0,0.01 v 0 c 0,0.01 0,0.01 0,0.02 h 0.01 c 0.04,0.43 0.15,1.59 0.32,3.44 1.98,20.61 12.29,127.5 28.17,279.79 17.68,169.99 42.75,396.57 70.2,622.64 27.36,226.24 57.12,452.24 80.56,621.61 23.39,169.38 40.02,282.19 40.02,282.19 0,0 -10.79,-113.51 -28.53,-283.6 -17.69,-170.09 -42.77,-396.73 -70.27,-623.08 -27.34,-226.19 -57.1,-452.06 -80.52,-621.29 -21.24,-153.78 -36.89,-260.85 -39.58,-279.15 -0.18,-1.22 -0.3,-2.04 -0.36,-2.46 0,-0.03 -0.01,-0.06 -0.01,-0.08 0,-0.01 0,-0.01 -0.01,-0.02 v -0.01 0" /><path
         id="path154"
         style="fill:#313131;fill-opacity:1;fill-rule:nonzero;stroke:none"
         d="m 1997.39,2059.4 c -0.04,0 -0.07,0 -0.11,0 l -0.29,0.01 h -0.12 l 0.26,0.02 h 0.14 l 0.86,0.07 0.85,0.11 c 0,0 0,0.01 0,0.02 0,0.01 0,0.01 0,0.02 0,0.01 0,0.02 0,0.03 0,0 0,0.01 0,0.02 0,0.01 0,0.01 0,0.02 0,0.01 0.01,0.02 0.01,0.03 0,0.01 0,0.01 0,0.02 0,0.01 0,0.02 0,0.03 0,0 0,0.01 0,0.02 0,0.01 0,0.02 0,0.03 0,0 0,0.01 0,0.02 0,0.01 0,0.02 0,0.03 0,0.01 0,0.01 0,0.02 0,0.01 0,0.02 0,0.04 0.01,0 0.01,0.01 0.01,0.02 0,0.01 0,0.02 0,0.04 0,0.01 0,0.02 0,0.03 0,0.01 0,0.02 0,0.03 0,0.01 0,0.03 0,0.04 0,0.01 0,0.03 0,0.04 0,0.02 0,0.03 0.01,0.04 0,0.02 0,0.04 0,0.05 0,0.02 0,0.04 0,0.06 0,0.02 0,0.04 0,0.06 0,0.02 0,0.04 0.01,0.06 0,0.03 0,0.06 0,0.09 0,0.02 0,0.05 0,0.08 0,0.04 0.01,0.08 0.01,0.12 0,0.04 0,0.08 0,0.12 0.01,0.06 0.01,0.11 0.01,0.17 0,0.06 0.01,0.13 0.01,0.2 0,0.09 0.01,0.18 0.01,0.27 0.01,0.12 0.01,0.24 0.02,0.36 0.01,0.19 0.02,0.39 0.02,0.6 0.02,0.28 0.03,0.58 0.04,0.89 0.08,1.74 0.18,4.07 0.31,6.97 0.01,0.2 0.02,0.41 0.03,0.62 0,-0.4 0,-0.79 0,-1.17 0.01,-6.01 0.02,-9.41 0.02,-9.98 0,-0.02 0,-0.04 0,-0.06 0,-0.01 0,-0.01 0,-0.02 v 0 0 0 0 0 0 0 0 0 c -0.01,0 -0.01,-0.01 -0.01,-0.01 h -0.01 c -0.04,-0.01 -0.1,-0.02 -0.19,-0.04 -0.17,-0.04 -0.43,-0.1 -0.73,-0.14 -0.26,-0.04 -0.56,-0.08 -0.87,-0.09 -0.1,0 -0.2,-0.01 -0.3,-0.01 m 2.09,11.52 c -0.06,32.65 -0.11,134.11 0.86,273.47 1.14,170.82 4.3,398.58 10.15,626.32 5.7,227.74 14.08,455.44 21.59,626.18 7.47,170.75 13.59,284.55 13.59,284.55 0,0 0.08,-113.96 -1.53,-284.85 -1.61,-170.9 -5.73,-398.71 -11.68,-626.46 -5.91,-227.74 -13.94,-455.39 -20.95,-626.09 -6.13,-139.1 -10.59,-240.4 -12.03,-273.12" /><path
         id="path448"
         style="fill:#e1bb76;fill-opacity:1;fill-rule:nonzero;stroke:none"
         d="M 2906.96,1366.7 H 1093.04 c -176.692,0 -320.438,143.75 -320.438,320.44 h 20.523 c 0,-165.38 134.543,-299.92 299.915,-299.92 h 1813.92 c 165.37,0 299.92,134.54 299.92,299.92 h 20.52 c 0,-176.69 -143.75,-320.44 -320.44,-320.44" /><path
         id="path450"
         style="fill:#e1bb76;fill-opacity:1;fill-rule:nonzero;stroke:none"
         d="M 2906.96,1407.87 H 1093.04 c -153.985,0 -279.267,125.27 -279.267,279.27 h 10.258 c 0,-148.34 120.68,-269.02 269.009,-269.02 h 1813.92 c 148.33,0 269.01,120.68 269.01,269.02 h 10.25 c 0,-154 -125.27,-279.27 -279.26,-279.27" /><path
         id="path480"
         style="fill:#e1bb76;fill-opacity:1;fill-rule:nonzero;stroke:none"
         d="m 768.746,2330.21 -19.199,7.25 c 53.574,141.94 143.758,262.21 260.803,347.79 121.68,88.97 267.31,135.99 421.14,135.99 54.56,0 108.99,-5.9 161.8,-17.55 l -4.42,-20.04 c -51.36,11.33 -104.3,17.07 -157.38,17.07 -149.45,0 -290.89,-45.65 -409.02,-132.03 -113.825,-83.23 -201.564,-200.27 -253.724,-338.48" /><path
         id="path452"
         style="fill:#e1bb76;fill-opacity:1;fill-rule:nonzero;stroke:none"
         d="m 2620.27,2333.79 h -20.52 c 0,332.63 -270.61,603.25 -603.25,603.25 -332.63,0 -603.24,-270.62 -603.24,-603.25 h -20.52 c 0,343.94 279.82,623.76 623.76,623.76 343.95,0 623.77,-279.82 623.77,-623.76" /><path
         id="path470"
         style="fill:#e1bb76;fill-opacity:1;fill-rule:nonzero;stroke:none"
         d="m 3231.26,2330.21 c -52.17,138.21 -139.9,255.25 -253.73,338.48 -118.14,86.38 -259.57,132.03 -409.02,132.03 -53.07,0 -106.03,-5.74 -157.38,-17.07 l -4.42,20.04 c 52.8,11.65 107.25,17.55 161.8,17.55 153.83,0 299.47,-47.02 421.14,-135.99 117.04,-85.58 207.23,-205.85 260.8,-347.79 l -19.19,-7.25" /><g
         id="g4815"
         transform="matrix(-2.409668,0,0,2.4607203,2615.116,1690.1878)"
         clip-path="url(#clipPath5024)"><circle
           id="circle4733"
           r="176.552"
           cy="256"
           cx="256"
           style="fill:#5b5d6e" /><circle
           id="circle4735"
           r="158.897"
           cy="256"
           cx="256"
           style="fill:#464655" /><path
           id="path4737"
           d="M 256,0 C 114.615,0 0,114.615 0,256 0,397.385 114.615,512 256,512 397.385,512 512,397.385 512,256 512,114.615 397.385,0 256,0 Z m 0,35.31 c 39.003,0 70.621,31.618 70.621,70.621 0,39.003 -31.618,70.621 -70.621,70.621 -39.003,0 -70.621,-31.618 -70.621,-70.621 0,-39.003 31.619,-70.621 70.621,-70.621 z M 114.759,326.621 c -39.002,0 -70.621,-31.618 -70.621,-70.621 0,-39.003 31.618,-70.621 70.621,-70.621 39.003,0 70.621,31.618 70.621,70.621 0,39.003 -31.619,70.621 -70.621,70.621 z M 256,467.862 c -39.002,0 -70.621,-31.618 -70.621,-70.621 0,-39.003 31.618,-70.621 70.621,-70.621 39.003,0 70.621,31.618 70.621,70.621 0,39.003 -31.618,70.621 -70.621,70.621 z M 397.241,326.621 c -39.002,0 -70.621,-31.618 -70.621,-70.621 0,-39.003 31.618,-70.621 70.621,-70.621 39.003,0 70.621,31.618 70.621,70.621 0,39.003 -31.618,70.621 -70.621,70.621 z"
           style="fill:#252323;fill-opacity:1"
           inkscape:connector-curvature="0" /><circle
           id="circle4739"
           r="35.310001"
           cy="256"
           cx="256"
           style="fill:#c7cfe2" /><circle
           id="circle4741"
           r="17.655001"
           cy="256"
           cx="256"
           style="fill:#5b5d6e" /><g
           id="g4751"><path
             id="path4743"
             d="m 203.034,211.862 c -2.259,0 -4.518,-0.862 -6.241,-2.586 L 90.862,103.345 c -3.448,-3.448 -3.448,-9.035 0,-12.483 3.448,-3.448 9.035,-3.448 12.483,0 l 105.931,105.931 c 3.448,3.448 3.448,9.035 0,12.483 -1.724,1.724 -3.983,2.586 -6.242,2.586 z"
             style="fill:#e1bb76"
             inkscape:connector-curvature="0" /><path
             id="path4745"
             d="m 414.897,423.724 c -2.259,0 -4.518,-0.862 -6.241,-2.586 L 302.724,315.207 c -3.448,-3.448 -3.448,-9.035 0,-12.483 3.448,-3.448 9.035,-3.448 12.483,0 l 105.931,105.931 c 3.448,3.448 3.448,9.035 0,12.483 -1.724,1.724 -3.983,2.586 -6.241,2.586 z"
             style="fill:#e1bb76"
             inkscape:connector-curvature="0" /><path
             id="path4747"
             d="m 308.966,211.862 c -2.259,0 -4.518,-0.862 -6.241,-2.586 -3.448,-3.448 -3.448,-9.035 0,-12.483 L 408.655,90.861 c 3.448,-3.448 9.035,-3.448 12.483,0 3.448,3.448 3.448,9.035 0,12.483 l -105.93,105.932 c -1.725,1.724 -3.984,2.586 -6.242,2.586 z"
             style="fill:#e1bb76"
             inkscape:connector-curvature="0" /><path
             id="path4749"
             d="m 97.103,423.724 c -2.259,0 -4.518,-0.862 -6.241,-2.586 -3.448,-3.448 -3.448,-9.035 0,-12.483 L 196.793,302.724 c 3.448,-3.448 9.035,-3.448 12.483,0 3.448,3.448 3.448,9.035 0,12.483 l -105.93,105.931 c -1.725,1.724 -3.984,2.586 -6.243,2.586 z"
             style="fill:#e1bb76"
             inkscape:connector-curvature="0" /></g><g
           id="g4753" /><g
           id="g4755" /><g
           id="g4757" /><g
           id="g4759" /><g
           id="g4761" /><g
           id="g4763" /><g
           id="g4765" /><g
           id="g4767" /><g
           id="g4769" /><g
           id="g4771" /><g
           id="g4773" /><g
           id="g4775" /><g
           id="g4777" /><g
           id="g4779" /><g
           id="g4781" /></g><path
         id="path472"
         style="fill:#e1bb76;fill-opacity:1;fill-rule:nonzero;stroke:none"
         d="m 2534.16,2746.43 c 93.64,-98.34 127.44,-270.16 137.31,-336.02 15.76,64.17 52.81,230.16 32.27,295.5 -7.48,23.77 -23.43,41.54 -46.13,51.37 -32.82,14.22 -76.45,10.34 -123.45,-10.85 z m 135.69,-368.34 -0.44,0.02 c -2.47,0.21 -4.44,2.15 -4.66,4.62 -0.24,2.42 -24.18,243.11 -142.94,361.66 -1.18,1.18 -1.71,2.85 -1.44,4.49 0.28,1.64 1.34,3.04 2.83,3.76 52.2,25.14 101.38,30.13 138.48,14.05 25.52,-11.05 43.45,-31.01 51.85,-57.71 26.48,-84.23 -36.06,-317.23 -38.74,-327.11 -0.6,-2.25 -2.64,-3.78 -4.94,-3.78" /><path
         id="path474"
         style="fill:#e1bb76;fill-opacity:1;fill-rule:nonzero;stroke:none"
         d="m 2673.17,2379.32 -6.65,7.8 c 1.86,1.58 185.35,159.11 185.35,251.42 0,28.79 -10.6,51.87 -30.64,66.74 -27.69,20.54 -71.29,24.59 -116.62,10.85 l -2.98,9.82 c 48.42,14.68 95.43,10.04 125.7,-12.43 22.77,-16.88 34.79,-42.81 34.79,-74.98 0,-41.03 -31.92,-97.22 -94.89,-167.01 -46.48,-51.52 -93.59,-91.81 -94.06,-92.21" /><path
         id="path476"
         style="fill:#e1bb76;fill-opacity:1;fill-rule:nonzero;stroke:none"
         d="m 2671.05,2378.23 -2.41,9.97 c 0.74,0.18 75.4,18.37 150.74,48.02 98.28,38.66 153.13,78.86 158.63,116.26 4.34,29.66 -7.45,58.67 -32.38,79.58 -25.82,21.65 -60.79,30.33 -87.02,21.61 l -3.24,9.74 c 29.5,9.8 68.42,0.35 96.85,-23.49 27.72,-23.25 40.82,-55.67 35.93,-88.93 -14.46,-98.48 -304.74,-169.77 -317.1,-172.76" /><path
         id="path478"
         style="fill:#e1bb76;fill-opacity:1;fill-rule:nonzero;stroke:none"
         d="m 2669.91,2378.09 -0.12,10.25 437.25,5.49 c 3.84,27.08 -3.43,66.35 -28.75,97.01 -23.23,28.14 -57.34,43.02 -98.63,43.02 v 10.26 c 56.16,0 88.94,-25.42 106.55,-46.74 28.75,-34.83 35.9,-80.14 30.23,-109.6 -0.46,-2.39 -2.54,-4.13 -4.98,-4.16 l -441.55,-5.53" /><path
         id="path482"
         style="fill:#e1bb76;fill-opacity:1;fill-rule:nonzero;stroke:none"
         d="m 1386.04,2765.7 c -15.95,0 -30.64,-2.78 -43.65,-8.42 -22.7,-9.83 -38.65,-27.6 -46.13,-51.37 -20.55,-65.35 16.51,-231.34 32.26,-295.5 9.87,65.86 43.67,237.69 137.32,336.02 -28.37,12.79 -55.53,19.27 -79.8,19.27 z m -55.89,-387.61 c -2.3,0 -4.34,1.53 -4.95,3.78 -2.68,9.88 -65.21,242.88 -38.73,327.11 8.4,26.7 26.33,46.66 51.85,57.71 37.1,16.07 86.28,11.09 138.47,-14.05 1.5,-0.72 2.56,-2.12 2.83,-3.76 0.28,-1.64 -0.25,-3.31 -1.43,-4.49 -118.81,-118.59 -142.71,-359.24 -142.94,-361.66 -0.23,-2.47 -2.19,-4.41 -4.66,-4.62 l -0.44,-0.02" /><path
         id="path484"
         style="fill:#e1bb76;fill-opacity:1;fill-rule:nonzero;stroke:none"
         d="m 1326.82,2379.32 c -0.47,0.4 -47.58,40.69 -94.05,92.21 -62.97,69.79 -94.89,125.98 -94.89,167.01 0,32.17 12.02,58.1 34.78,74.98 30.28,22.46 77.28,27.1 125.7,12.43 l -2.97,-9.82 c -45.34,13.74 -88.93,9.69 -116.62,-10.85 -20.04,-14.87 -30.64,-37.95 -30.64,-66.74 0,-92.33 183.5,-249.84 185.35,-251.42 l -6.66,-7.8" /><path
         id="path486"
         style="fill:#e1bb76;fill-opacity:1;fill-rule:nonzero;stroke:none"
         d="m 1328.95,2378.23 c -12.36,2.99 -302.64,74.28 -317.1,172.75 -4.89,33.27 8.21,65.69 35.92,88.93 28.45,23.85 67.36,33.29 96.85,23.5 l -3.23,-9.74 c -26.24,8.71 -61.2,0.03 -87.02,-21.61 -24.93,-20.92 -36.73,-49.92 -32.37,-79.58 5.49,-37.4 60.34,-77.6 158.62,-116.26 75.34,-29.65 149.99,-47.84 150.73,-48.02 l -2.4,-9.97" /><path
         id="path488"
         style="fill:#e1bb76;fill-opacity:1;fill-rule:nonzero;stroke:none"
         d="m 1330.08,2378.09 -441.541,5.53 c -2.434,0.03 -4.512,1.77 -4.969,4.16 -5.679,29.45 1.457,74.76 30.219,109.59 17.602,21.33 50.387,46.75 106.551,46.75 h 0.01 v -10.26 c -41.303,0 -75.416,-14.88 -98.651,-43.02 -25.32,-30.66 -32.578,-69.94 -28.738,-97.01 l 437.249,-5.49 -0.13,-10.25" /><path
         id="path490"
         style="fill:#e1bb76;fill-opacity:1;fill-rule:nonzero;stroke:none"
         d="m 2000,1038.96 c -1.31,0 -2.62,0.26 -3.86,0.76 l -807.2,327.73 7.72,19.01 803.34,-326.16 803.34,326.16 7.71,-19.01 -807.19,-327.73 c -1.24,-0.5 -2.55,-0.76 -3.86,-0.76" /><text
         xml:space="preserve"
         style="font-style:normal;font-weight:normal;font-size:300px;line-height:1.25;font-family:sans-serif;letter-spacing:0px;word-spacing:0px;fill:#e1bb76;fill-opacity:1;stroke:none;stroke-width:7.5;"
         x="1125"
         y="-1897.5002"
         id="text4125"
         transform="scale(1,-1)"><tspan
           sodipodi:role="line"
           id="tspan4123"
           x="1125"
           y="-1897.5002"
           style="font-style:normal;font-variant:normal;font-weight:normal;font-stretch:normal;font-size:480px;line-height:1.25;font-family:'Coventry Garden NF';-inkscape-font-specification:'Coventry Garden NF';font-variant-ligatures:normal;font-variant-caps:normal;font-variant-numeric:normal;font-feature-settings:normal;text-align:start;writing-mode:lr-tb;text-anchor:start;stroke-width:7.5;fill:#e1bb76;">KinoTimes</tspan></text>
<path
         id="path444"
         style="fill:#e1bb76;fill-opacity:1;fill-rule:nonzero;stroke:none"
         d="m 667.996,2323.54 c -172.621,0 -313.062,-140.45 -313.062,-313.08 0,-172.62 140.441,-313.07 313.062,-313.07 H 3332 c 172.63,0 313.07,140.45 313.07,313.07 0,172.63 -140.44,313.08 -313.07,313.08 z M 3332,1676.87 H 667.996 c -183.937,0 -333.582,149.65 -333.582,333.59 0,183.94 149.645,333.59 333.582,333.59 H 3332 c 183.94,0 333.59,-149.65 333.59,-333.59 0,-183.94 -149.65,-333.59 -333.59,-333.59" /><path
         id="path446"
         style="fill:#e1bb76;fill-opacity:1;fill-rule:nonzero;stroke:none"
         d="m 668.004,2292.62 c -155.586,0 -282.164,-126.58 -282.164,-282.16 0,-155.58 126.578,-282.16 282.164,-282.16 H 3332 c 155.58,0 282.16,126.58 282.16,282.16 0,155.58 -126.58,282.16 -282.16,282.16 z M 3332,1718.05 H 668.004 c -161.246,0 -292.422,131.17 -292.422,292.41 0,161.24 131.176,292.42 292.422,292.42 H 3332 c 161.24,0 292.42,-131.18 292.42,-292.42 0,-161.24 -131.18,-292.41 -292.42,-292.41" /></g></g></svg>